<mxfile host="app.diagrams.net" agent="Mozilla/5.0 (Windows NT 10.0; Win64; x64) AppleWebKit/537.36 (KHTML, like Gecko) Chrome/134.0.0.0 Safari/537.36 Edg/134.0.0.0" scale="1" border="0" version="26.1.3">
  <diagram name="Page-1" id="y0UXrRYaq1K9tHQNtK9U">
    <mxGraphModel dx="1426" dy="755" grid="1" gridSize="10" guides="1" tooltips="1" connect="1" arrows="1" fold="1" page="1" pageScale="1" pageWidth="850" pageHeight="1100" math="0" shadow="0">
      <root>
        <mxCell id="0" />
        <mxCell id="1" parent="0" />
        <mxCell id="YKXpJ7-SHgZSjocbSze1-2" value="" style="whiteSpace=wrap;html=1;aspect=fixed;" parent="1" vertex="1">
          <mxGeometry x="273" y="500" width="200" height="200" as="geometry" />
        </mxCell>
        <mxCell id="YKXpJ7-SHgZSjocbSze1-10" value="" style="line;strokeWidth=1;rotatable=0;dashed=0;labelPosition=right;align=left;verticalAlign=middle;spacingTop=0;spacingLeft=6;points=[];portConstraint=eastwest;" parent="1" vertex="1">
          <mxGeometry x="273" y="650" width="200" height="10" as="geometry" />
        </mxCell>
        <mxCell id="YKXpJ7-SHgZSjocbSze1-11" value="Table" style="whiteSpace=wrap;html=1;align=center;" parent="1" vertex="1">
          <mxGeometry x="278" y="660" width="40" height="20" as="geometry" />
        </mxCell>
        <mxCell id="YKXpJ7-SHgZSjocbSze1-12" value="Table" style="whiteSpace=wrap;html=1;align=center;" parent="1" vertex="1">
          <mxGeometry x="298" y="670" width="40" height="20" as="geometry" />
        </mxCell>
        <mxCell id="YKXpJ7-SHgZSjocbSze1-14" value="Table" style="whiteSpace=wrap;html=1;align=center;" parent="1" vertex="1">
          <mxGeometry x="333" y="660" width="40" height="20" as="geometry" />
        </mxCell>
        <mxCell id="YKXpJ7-SHgZSjocbSze1-15" value="Table" style="whiteSpace=wrap;html=1;align=center;" parent="1" vertex="1">
          <mxGeometry x="343" y="670" width="40" height="20" as="geometry" />
        </mxCell>
        <mxCell id="YKXpJ7-SHgZSjocbSze1-16" value="Table" style="whiteSpace=wrap;html=1;align=center;" parent="1" vertex="1">
          <mxGeometry x="383" y="660" width="40" height="20" as="geometry" />
        </mxCell>
        <mxCell id="YKXpJ7-SHgZSjocbSze1-17" value="Table" style="whiteSpace=wrap;html=1;align=center;" parent="1" vertex="1">
          <mxGeometry x="393" y="670" width="40" height="20" as="geometry" />
        </mxCell>
        <mxCell id="YKXpJ7-SHgZSjocbSze1-18" value="Table" style="whiteSpace=wrap;html=1;align=center;" parent="1" vertex="1">
          <mxGeometry x="423" y="660" width="40" height="20" as="geometry" />
        </mxCell>
        <mxCell id="YKXpJ7-SHgZSjocbSze1-91" value="" style="endArrow=none;html=1;rounded=0;entryX=1.015;entryY=0.545;entryDx=0;entryDy=0;entryPerimeter=0;" parent="1" edge="1">
          <mxGeometry relative="1" as="geometry">
            <mxPoint x="270" y="590" as="sourcePoint" />
            <mxPoint x="473" y="590" as="targetPoint" />
          </mxGeometry>
        </mxCell>
        <mxCell id="YKXpJ7-SHgZSjocbSze1-93" value="" style="endArrow=none;html=1;rounded=0;entryX=1.005;entryY=0.305;entryDx=0;entryDy=0;entryPerimeter=0;" parent="1" edge="1">
          <mxGeometry relative="1" as="geometry">
            <mxPoint x="272" y="530" as="sourcePoint" />
            <mxPoint x="473" y="531" as="targetPoint" />
          </mxGeometry>
        </mxCell>
        <mxCell id="YKXpJ7-SHgZSjocbSze1-121" value="" style="shape=image;verticalLabelPosition=bottom;labelBackgroundColor=default;verticalAlign=top;aspect=fixed;imageAspect=0;image=data:image/png,iVBORw0KGgoAAAANSUhEUgAAANwAAAC9CAYAAADY8hN+AAAAAXNSR0IArs4c6QAAAARnQU1BAACxjwv8YQUAAAAJcEhZcwAAFxEAABcRAcom8z8AAA/SSURBVHhe7Z15kBTlHYYFoq4XarS8L9SAMYlHCEajJhIVhd0FFlhQKxq1osYDPDCawpA/clSpFVFjaS5FTaKJiaSEZbnxKMAjeACKGmM0iZGUB96rgMeX9xm6k81WLzu9s/RMz7xP1VPsDjPd3/d2/3bm6+ObTYwxxhhjjDHGGGOMMcYYY4wxxhhjjDHGGGOMMcYYY4wxZiNyz/Dhu81uqh8+e0Tj6XOaGs5otQXJgkzIhoyiuIzpHiGEXi0j68+c19T48KyRDZ8sHjcqLBk3Oiy2BddnMSqQDRmRFZlF8RmTjtYR9RPnjRq+bvnEC8NLt98aXmudEV6bNVP/tlgsZDGjkA0ZkRWZRfEZUzyzRp946MzGoW+umHR5eHfRA+HDp1ZEPtnu51r3f1mQEVmRGdlFMRpTHDMbT7xm0RmnhtdbpoePnn4qrHnisbDm8UdtksqGjMiKzMguitGY4mgZNmThsksvCmspNBdb1yojsiIzsotiNKY4WoYd/+CKyycWPi654IpQGZEVmZFdFKMxxTGj/vglKy5TwT253AVXjBScsiIzsotiNKY4XHApdcGZUnDBpdQFZ0rBBZdSF5wpBRdcSl1wphRccCl1wZlScMGl1AVnSsEFl1IXnCkFF1xKXXCmFFxwKXXBmVJwwaXUBWdKwQWXUhecKQUXXEpdcKYUXHApdcGZUnDBpdQFZ0rBBZdSF5wpBRdcSl1wphRccCl1wZlScMGl1AVnSsEFl1IXnCkFTyKUUgrOkwiZ7qK/0vcy5du6ZY+74IpRGZEVmZFdFKMxxdHSeOL1i848LaxubVk/EWzSTmb/KxmRFZmRXRSjMcUxq6lh0MzGoe88OXlSeO/BxYWPSx8+GU3xzb/2/zIhI7IiM7KLYjSmeFpH1E9aMHr4RysuuyS8fOdvwhtzZ4fV8+eEN+b1jKujf9/UMt+aPze8vWBueGfBvPDuwnnhvYXzQ5t8/9754YN7F4Q19y0Ia+9bGNbdv7DwO/Izj/F//M5zec17ev27Wg7LYpksm3V0XH+pFrJQJmRDRmRFZlF8xqQjNDf3mdnUcN7cpsbH544eHh48pTk8dMpY/dszsqwlJzeHBc1NYfboEWF6U2O4e/iwcGf9CeG2oceHXw75erjh2K+FKYOPDld99cjwgyMPD5O+PChMOebocI383uGDCo/xfzx247HHFF5zu17LMv6oZbHMOVr2fWNHh8Unj0lsR3ddn0VzIBsyIisyi+IzpnvMaG7Ya/bIxrGzRjScN7up4fzWEm0ZWX/BWV848L7GffuFYf32DoP32D0ctduuYdDOO4WDd9whHLD9dqHfttuEPbbaMuxYt3nou9mmoa5PH754Lag5Yde6uik71W3OOKnwWF3v3qHvppuGnbaoC7vrNftt27ewjIO0LJbJso/ba88wdJ+9Q8O++wTWPX3EsPFJbUsjWRQyUTZkVAjLmAplZ3mj/EAWCqlI/ySht5wtk57TmWslhbqTNKbm4NtCx8plMqlAOrpKDpQxX5I8lvTcjq6QzdLfUGpqnn7yBrlaJhULfignyI58V34ik16Db8mfSn/kM6Ydn5JTZVLR4Ay5mezI1rJVJr0Gb5N8/DTGRPDR8C75qnxbdiwaHj9IdgbnvXhOx9exLB5n2e0/ihpTk+wnr5LrJB8nvy8vke2L5mN5nuyKS+VHsv1rWdZkybJZB+tincbUFH3lhfIvksLgHehICcdJiiwumplyG9kVPKf9R0uWwbKAZbMOHmedrJs2GFPVcFJ4pHxYcqDjz9Hv7cdmx8v3JcXxD3mwLJYjZHzU8j15rIxhHayLdbLuR6LffaLaVCXxOI1ieEleLJPeuY6S8TjuIh5IyXckr+XoJMvqCOtk3bSB59Em2mZMVcCY6UrJO86b8jq5v+wMDoBQcPNlHQ+khI+KD0jWtaEDJbTrWsnzaBtt9PjO5JatJOfNnpPxO8nhsisokkWymOd2xjGSoju08NuGYT3xOy9tpc203ZhcwFipUTJW4mT1Y3KULPbdqr8cKks9d0YbDlz/Y5fQNtpIW2kzbef1Sef9jKkY+Dh4h+Td4kXJofrtZBp68tIrTqanYVtJm1+Q9IG++N42U3HsIznHxXioTU6RvFPllc9Ixnf0hT7RN/poTFnhsqrxMn5HuFuWMvaqNOgLfaJv9JG+0mdjMoWxTb18SHJ1xxOSK/GrccxDn+gbfaSv9Jm+e3xnMqH9OO152Z1xWh6hj/SVPnt8ZzY63N5yteRiYG7k5HzaAFlr0Gf6TgZkQSa+9cf0GFyZca7kqCPXJ06XXEJV65ABWZAJ2ZBRMdd8GpMI1xgyVuEkNB+hHpXjZNpD7dUMWZAJ2ZARWZGZr880qThMtj+fNlF+WppkyIaMyCoe35GhMRtkD8k5p1ckH5UYq+T5fFrWkBWZkR0ZkiWZGvN/cASOmzy5gn6NZDqDajqfljVkR4ZkSaZkWwtHck0XcL1ig7xf8lFoqTxJeg6Q0iFDsiRTsiVjsna2NQrnkO6UnMyN70/bUZqehUzj++/Imsx9/q6GYEzBuaM3ZHw+bUP3p5megYzj83dkzzbw+K6K2V6eI/8u2egtMp5HxGQHmZM924BtwTZh25gqgnND8yRjicVyjDTlhW3AtmCbsG3YRqYbcNKzUuTuaSZCfUdymJr5PnaTwH1nSa/ZWFbywQLaltTmjWV8zx/bgm3CtmEbsa3YZkmvKZcVCVccnCgZED8t/1Yhvib5C4rc2/WMXCmTnrux5Wp7pjOvpAl7aAttom1Jbd7Ysi3YJmybeDuxzZKeWw7Zl9mn2bcr5goj5r/4iVzbv3//MGrUqDBu3DjbwYaGhrDLLrvEOxTjlnK+47Hus+VrtIm2JbW51mVfZp9WTow32ccrYq4XLukJp59+eli5cmUwnbNkyZIwePBgNuC78gTCKxOs+x3aQptM57BPs28rL7yU8MoJ06o9O2TIkNDW1hY10WyIZ599NgwYMICNd48sx+zHrPMe/nLTFtM17Nvs48qNWavLOpUgdwKHadOmRU0zxTB58mQ2HhO1HkCIGcM637riiiui1phiYB9Xbsg+XzbOkmH58uVRs0wxTJ06Nd54XyTEjGGd4eabb45aY4qBfZzcJPt82XDBdYNbb7217AV3yy23RK0xxVBRBbds2bKoWaYY/A6XP9jHyU264PKGCy5/uOByjAsuf7jgcowLLn+44HKMCy5/uOByjAsuf7jgcowLLn+44HKMCy5/uOByjAsuf7jgcowLLn+44HKMCy5/uOByjAsuf7jgcowLLn+44HKMCy5/uOByjAsuf7jgcowLLn+44HKMCy5/uOByjAsuf7jgcowLLn9UVMF5TpN0eE6T/OFJhHKM3+HyR6UUnOel7AaelzJ/VMq8lJ55OSWeeTl/VNLMy+DvFigSf7dA/qi07xYAf3tOEfrbc/JnpX57DlTq98PxlbbxX6fu+C+ZtNzuWCvfD0dmSVkW6wsyabnlsCK/H64jSd8iWS63kXfLpA27IT+UP5N7yqTldsdyvqN1BW1LanN3JLNfSDJMynZD/k5uLpOWWy5NSj4nX5RJGzjJ5+QZclNpusdm8luSLJMyTpJt1E+aKqBwvrALP5K/lp+Vpmcgy9/KYt7tvilNlbCl/INM2tD4uvyGNBuHUyVfnJ+UPfJl+v74VmXw17azj5ar5PlyO2l6lm0l2f5bJmXPga1yXABgMuBcyUfH9ht8pWyNfl4qT5KVfIAjL5AhWZIp2ZIxWbfPnsPtp0lTpXAg5Pey/UZnjMHRTIrxn3KNnCGPkKZ7kB0ZkiWZki0Zk3X77O+QvaSpYj4vX5LxRv+5jNldXiUZb3wir5P9pSkOsiIzsiNDsiTTmF/JOHc+Su4vTQ3AVRbrJBt+Cg904DDJX1/+n3Efl6/tIE0yZENG8RiZ7MiwI9dL/p/sOZBiagROrk6TbPwf80ACHDWrl4skz3tUjpMVe8VBGSALMiEbMiIrMuvsiCNZ8zyOGNfxgKkduC+Mv8iTC791ztaSMQjP/VhOlx7frc+ALMiEbOJx2ob4ofyr9Mf0GoWrIb69/scu4ZIlxiSvSo6uMVYZIGsN+kzfyYAsyIRsioGLtsnc1Ch8rEl7OdEgGY/vuMD1UlkL5+/oI32lz/SdDMgiDRxA4eO8MangWkHGKg9KzutxtT13AvN4tUGf6Bt9pK/0mb5XY19NhcP4brzklhL+6nNnwuGyWqAv8d0W9JG+0mdjyso+krHMm7JNcqohzwcGaDt9oC/0ib7RR2MqivbjO47c5W18x3WPtLn9+bS04zRjMoWxTaN8RHJbymNylKzk8060jTbSVtpM2+mDx2kmNzD/xQQZ34TJyd5KHN/RpvjWJdpKmytm7g5j0sK0aldKZupiPMQ5rEq4hpB20RbaRNtoY9mngDOmp2DCnrsk7yRcPH2xLNe8lKw7voCbNlXSxEbG9BhcYzhSPiy5op57xfg9i5PBrIN1sU7WzTiN332ntal6eJe5UDKTbzy+O1JuLFh2PE5jnay7HO+uxpQVxkyc4+J2ldWSMVVPnu9iWddKls06WJfHaabmGSi5XYiiYH4VjhRyTqy78FqWwbJYJstmHcaYCOYAGSMZ3/HRb4lkjJVmfkzuT+M1vJZlsCyW6TlajOkErkzh3el5GY/vviK7gufE4zReyzI8C5kxRcJtQ1dLJuJhDMa1jXvLjvAY/8dzuEeN13gGY2O6CcXD5DucN3tGcmf1jpH8zGP8H8/ZVxpT9fD9BczczISnPSl3o3OHND/fK/m4iPzc8XeeE9/B3n4ZPSF9o4/GlBXGSD+SzNMR7/zVKn2krx4XmrKwhZzap0+f0NzcHGbNmlX4tsxqlL7RR/pKn6O+G5MpJ/fu3TtMnDgxrF27NvqC2uqFPtJX+kzf10dgTDZwn9icgQMHhldeeSXaJasf+kqf6XuUgTGZwHWIq84555xoV6wd6DN9jzIwJhO4dGr1hAkTot2wdqDP9D3KwJhMYGd7ffz48dFuWDvQZ/oeZWBMJrjgXHAmQ1xwLjiTIS44F5zJEBecC85kiAvOBWcyxAXngjMZ4oJzwZkMccG54EyGuOBccCZDXHAuOJMhLjgXnMkQF5wLzmSIC84FZzLEBeeCMxnignPBmQxxwbngTIa44FxwJkNccC44kyEuOBecyRB2Nk8iZExGMEXcy2effXa0G9YO9Jm+RxkYkwlMgtp6yCGHhFWrVkW7YvVDX+kzfY8yMCYzxvTq1StccMEFoa2tLdolqxf6SF/pM31fH4Ex2VEnb2IHbGhoCNOmTQtLly6tSukbfYyK7aao78ZkztZyklwp2RmrWfpIX+mzMWWlv+Rj1hlVKn2jj8YYY4wxxhhjjDHGGGOMMcYYY4wxxhhjjDHGGGOMMcYYUx422eQ/wQYh1Qm2ANkAAAAASUVORK5CYII=;" parent="1" vertex="1">
          <mxGeometry x="305.54" y="605" width="46.56" height="40" as="geometry" />
        </mxCell>
        <mxCell id="YKXpJ7-SHgZSjocbSze1-122" value="" style="shape=image;verticalLabelPosition=bottom;labelBackgroundColor=default;verticalAlign=top;aspect=fixed;imageAspect=0;image=data:image/png,iVBORw0KGgoAAAANSUhEUgAAANwAAAC9CAYAAADY8hN+AAAAAXNSR0IArs4c6QAAAARnQU1BAACxjwv8YQUAAAAJcEhZcwAAFxEAABcRAcom8z8AABGCSURBVHhe7Z0LlFVVHcZBCMbUBSmCaUBIaZIJWa4ellhSkJUgIiCSMsDADJAJtKyUAIXhNTxMMSQrxbKlVCAypsyDpynIyAgykAxvzVBBFBwQneHf913vyWk8MPecmTn3nHu/31q/JTPOXC7nnO+evfd/730aCSGEEEIIIYQQQgghhBBCCCGEEEIIIYQQQgghhBBCCCFEA5I5Nf/8YXnFvXPyijNz8lZA/leOnLUic/iMokHDpxdcPXJK4VnxwyWEP66fsLBZzszCMSPmrHpxxOyVNvq3JbKaY+aV2K33PW8I3/s5s1auGjmz+Jr4oRPCG2bWOHtG0ZRRd6+2uxdvs6fWv27PbHlbVnfr27am7KAt+udrlvuXMkPo3smZVXx9/BAKkThsJvGT+/78cit79Zjt3m+2+4D8mPHjUrKjwqY/tsWyphfsuWXamnbxwyhEYgyZUvDXiQ+9aBt2HrFduKi27auUJ7D89Up75aDZ0xv225h7n7Hh04t+Fj+MQtTOzRNWZGRNKyydu2S7wpag29+osk17jtpdD5fa4CkFC+KHUojaGTatsEXWjKJN85/caTv3H3e9wOT/y8Cx6Z37540I3LLH4odSiNph4IZNL9x4f74Cl6gM3OZX4oHLXfZo/FAKUTsKnHcVOOEbBc67CpzwjQLnXQVO+EaB864CJ3yjwHlXgRO++ShwOxS4BFXghG8UOO8qcMI3Cpx3FTjhGwXOuwqc8I0C510FTvhGgfOuAid8o8B5V4ETvlHgvKvACd8ocN5V4IRvFDjvKnDCNwqcdxU44RsFzrsKnPCNAuddBU74RoHzrgInfMPAfbiJkAKXqAycNhESvhg9+rFTh04vfHHuE9tt1wFtk5eIDNymPe/ZpIdLbcjUwofjh1KIxBgypWDRnQs2Wumuo9qbMgH3HjQrKD1gY+c+Y8NmLB8TP4xCJMbwGYU9c2Yur3zgHzts62sfxLb0ZvDkx+VW56W7j1jewq2Gvu+ro/JWdfjwKAqRINcvXNgke0bR7FvuecbuXVJuhRv229qXD9W/2w7buvJ3YYU9v/2Ird9x1NbvfM9Kdh2D79sLuz+wDXsqbcPeKivde9xKX7EPv8ev8Wd+b8OeKnyvMvZ9/k7JzmN4nfdir8XXjL0+/p6121z+/jq4Dq/33L8O2RNr99m0R7fYiNkrK7Lzin8SP4RCeGPCgysysmcW3T5y9uotP717tf18/oZ6d8xvn7dbfrPGRs5abtnTl9nQyUts0IS/2sDb/2wDbnvI+o6Zb71H3WM9s2faj4ZOtR43T4x975rhefjznbHv9cqZbX1uuc/6j/29DfjFArvpjr9Y5sS/WVbu0thrjpq9wm6991kbM2+963uoi2Pvf8FGzCquypm1cu2oWSv15BxRd7LveurC7FnFA3DHG5k9Yznkf/07dPLSW7/2gyHPX/zNnnbR135oF1x6lZ1/yRXW/qKv27kdu1jrtl+wM8/pYC1afcZOa3G2NT/1DGvStJk1atQYNjraul2n8U0+kTEXf459r2mzDMs4raWd/qlzrMXZbe2scztam/ad7LzPXRp7zY6XdLULv9rdOn39R8a/88o+Yxe7vS/PzuSxKM4ZNq2g95DcojaxgyVESPksfAhWQgYpUedBcjpcB91+5kS+A8fBM6AQaUcTOBiWQ7eA1HQj7AgdfgAroNvP1nQ1vAoKkfZ8AT4I34VuYaFH4XWwJnOg2887vgbvgmdCIUQcNvOWQLfQ0N/BU2BNzoG887n9Ds2FQog4DNF34NPwTch+Vs3QbILnwRPRAx6B1X/nfcjXegM+AC+EQqQ1F8P7IQPyKrwNTox/7cgg1TbcztDeDav/HsM2CrLJeRgegL+CJwuuECkJh9DHQ4aM4eAdqAsk/WD14PwBNoe1waZlCXR+bz/8CiTfg09Bfr8UZsJmUIiUJgMOgmWQF38B5MhhY+jQFzqh2QpZPkiUH0Pezfi7e+Cl0IF9xJvgy/ADWAS/C6v/3UKkBLyou8JlkGHYBnmXcbtzXQOdwN3Mb3jkXsjfZbA4+lkT3l3vhOzbsQY4H3aCQqQEX4IsVh+HHKJnH+3T8ER0hwzMn2Jfeac1ZKAZuJNNIr4Esrn6Hnwdsn93svclRKg5G7KfthcyQOyndYa18X24Hl4U+8ofN8I1sH3sq5PTDTp3XpYX2OT9BBQiEnwScsY8+19ssq2A7KdxVkkifBVykKMusK/IpulnYl/VDvt3zowXlhMYQDaB3ep+QoSGK+GTkHcLBi4L8uL3QqLBTASvr8X+HWelsOnLfwObwurfidDh1NOOQfaH2E9L9O4SRr4M2b9j6Fi6uAOybyhEUuH8RM6+/zfkxcmLlOFLBTiyyqYtywf8t3G2C5vKqt+JwDkNDoCsp7GmtQpydLE+m4NhgX3SIZAjn1WQU9CugKrfiUDgvMcnoPOpz37aqTDVYcmA/bv/QJY42IT+IhSiQeAwPYvEnMnxNuSQf1uYbrB/x6VE/MDhbBbW71pBIeoFXky3Q87MYJNqAWQxO51pCtm/WwlZ+tgMB0KvI7JC/A/2XfpDNhvZhGI/7WooPoJN6WGQs1p4x8uHrN8J4QlO6l0KeRG9BIdCBlC4wxII+3dsBbA0wg2OVL8TtcJFmhwMYB+NfTVeRO2gSAwuMfoj5AcVp7Sxfqf+nfgYnPfIzj/XkHHBJycOp3s/zS8sjXA+KJvgLJmwdMK5nSyliDSHnXzW07gok5/KxVD9tPqBS4/Yv+OACo8t92tR/y6N4YRiZ94jP4VZ3NWncP3DJvkE+BZkM51NdvXv0ogLIOtph+JyMab2+Wh4uP6OJRV+wHG+KUst6t+lMNzz4xeQ/TTu/8h+Gi8CERycDsbNa7kpLWuaLLlwDxeNAKcQnGzLk/oc5Kcr13px3qNIHjwnbMI7fee/Q/XvfMJRqrDIk7gIsja0A7IT7+xAzE9bt99pKMO8mNPt/TakDufDyZAjw6zh3QNZmnH7nWQY2nPG0T7unciL+1+QF3cYPAj5CUq5TyMHR7gw1O1nG1pumzAd1mXrhPqEHzhcMMslRSzuu73nhnQ75AgmVyFwXxXnPO2Dbj+fDHlcfg+/DUPDp2BssWLnzp2tT58+1q9fv1DYt29f1+8nwx49eljLli15Qe2CP4TJhE069mcrOnToYD179nR9z+kuj0u7du14zji4ditM+pIkvoG8U045xcaOHWu7d+824c7x48etsLDQLrvsMp5ALnGpvmdk0HAh6bHrrrvOSktL4+9QuFFSUmK9evXiOWO3hAX8pMINb/YPGjQodkGJ2lm3bp21bt2aJ5D1qGTsjsWtEl64/PLLbd++ffF3JU7Gm2++aV26dOE5+yfkrKSkMaJJkyb27LPPxt+aSITBgwfz5G2Bydj35BvQ5s6dG383IhHmzJnDc8ZxAC5AThrjW7VqZTt27Ii/LZEIkydP5snjk3KS8USb2M7Ojz/+ePzdiETIz8/nOaPX8iAmi/Ft2rSx8vLy+NsSiZCbm5vMwPWEtnjx4vi7EYkQmsCxP6LAeSPJdzgFzgdLly5V4KKKAhc9FLgIo8BFDwUuwihw0UOBizAKXPRQ4CKMAhc9FLgIo8BFDwUuwihw0UOBizAKXPRQ4CKMAhc9FLgIo8BFDwUuwihw0UOBizAKXPRQ4CKMAhc9FLgIo8BFDwUuwihw0UOBizAKXPRQ4CKMAhc9FLgIo8BFj9AETnuaeEd7mkSP0Oxpol27vJPkO5x27fJBWAKnfSl9oH0po0dY9qXUzsse0c7L0SNMOy/r2QIJomcLRJOwPVuAhPbpOWFST8+JnmF8eo5DWJ8PtxvygPmVv+/2un5Ml+fD8e7tdiwT8QPo9prJMpTPh6uJ25Mkk+UZsBi6ndyTeRjeBVtAt9f1Y7o8AfXz8BHodlxrcwZ0e81kGeZzFlouh2wSuJ1gN3knYq1K+Oc0yCbYq9DtGLvJ484BHZECjIduJ7m6fOwtnzGdjKH6VOUrkN2MKuh2zB35gdgNihSBQ7mrodvJpjvh96BoGH4KT9bKYFNSpBgcIDgA3U44B3oGQA7+iPrl0/AO+DZ0O/bPwfOgSEHuhG4nnAVN/pkDLFdDUXeaw2GwDPLYLoEc+at+7Dk49X0oUpSW0AmX40x4FmRd6g14BP4JXgKFd5rC7pBN+PfhZngDPB3WHDHmsRcpzrcg58Q5J30idLgAcsoVmz/vQpYG2kGRGF3gg5DHdS+8HfLDzOEp6Bz3UtgGihSHtRUGyTnxY2FNvguXQv5/Fj+Hwk9C4Q5HdidBthA4BWou7ARr8nfIY1oBf8xviPSATcs1kCc/i99wgQHrDzfC43AVVP/u/zkVsp/2MuSxzIdd4Yl4GPLnGMhkTNwWSYRlAH4iD459dWJaQTaN+LOsJy2AX4LpDPtpPH78EKqE7KdxYm9to7xsbvJnz4l9JdIODlf3+fCPtcI5kPMhR9bYx2MxvS1MN74MnX7aHvgryA+lRBgHEz3eIgVhk4h1Ii9wAeITkBfcJsgmKV8n1eFxYt+Xk5PZxObg0hehFzrG/yuEJzhXkEPdrDFxhjubVhwK54TXVIN92SFwG2ST+ml4BQzNUhWRPpwJ2Uz6N+Qdj0tdLoapAAPFfloRdO7mXLjKtXRCJBWGbB7kBOjXIWt7UZ4EzX5abFEx5Ix/9nU1k1+EDs7XfBLyQt0K2b+L0vxMFqLZT3sN8t/ADxG3epoQoYF9Hja9GDgOma+AV8Ew9++4UJflkXLI6VjLIOtpWoApIgOXBLF0wClOvFs8ADvDsMF1aAwY3yOL/DdDFaVFZGGRnE0zDqWzqcb+nddSREPA8LOe5vQ7WU8Lw/sSos5wxI9NNOdOwiH2TMglLEHDfhqXKXHnZw7zs5ivfppISTiAMgg6a8QKIPt3QdS02E+7CXLeI2uHHO7nJG3V00TKwyH2X0Nnkx3277i0paFgPc1ZGsNlMby7qp4m0g7W7zhFikFg8ZxNvfrcSpv9R/bTuLaP20uwn6btDERaw6F3zs9kE49D8mzycaSQ08f84txBD0IOirCInYwn9QgRWjiAwqYeF7zyjscmoNet4xhS9tO4BMbpI2rPECFOAofmOT+TQ/VcPc27UyLr7zh5mhOLnX4aB2fSYRWDEPUC+3ccTGGAuCSGRXS3+Yxcp8d+Gtfpce9Hzns8FwohfMDdwxZCFs1LIPfP5BYRXDX9S8hFoHwiTx7UBGORFnBLbzbhRtazwyHXoo2B3HufdzsWqzlBmvtp8mvKBbH8WW52lA3dXqsucu3f56AQSYX9rfugM18yleVAzGiYiotsRQTgfouLmzdvbllZWbZ8+XIrKysLxM2bN9tLL73k+v8awkWLFln37t2tcePGnA/KWqFWEYhA4XSo2zIyMiwvLy/+cNrU5vDhw5aZmck7HaeF6Uk3IlA4L7GMjxGuqKiIX5Kpz5YtW6x9+/YMHUdP1bQUgcEBhEPjx4+PX4rpQVVVlfXu3ZuBWwdV4xOBwUL0oalTp8YvxfThhhtuYOBehHWZeiaEJ1iUfmfKlCnxyzB96N+/PwPHmSwKnAgMBU6BEwGiwClwIkAUOAVOBIgCp8CJAFHgFDgRIAqcAicCRIFT4ESAKHAKnAgQBU6BEwGiwClwIkAUOAVOBIgCp8CJAFHgFDgRIAqcAicCRIFT4ESAKHAKnAgQBU6BEwGiwClwIkAUOAVOBEhsE6Fp06bFL8P0QZsIiWTQER4aN25c/DJMDyorK+3aa69l4NZCbZMnAuN0uKlbt26xHYnTBW6v3rZtWwZuHtRGsCIwuNX56GbNmtmkSZNin/ypzltvvWU33ngjw8ZHGF/JgyBEkPAZbY82bdrUBg4caPn5+bZ+/fqU9JFHHrGuXbsybHyuAB/Mzw8cIQLnbMgHIW6HvCBT2Rcgnz2nsImkw1HLfpAPxU9Fe8H2UAghhBBCCCGEEEIIIYQQQgghhBBCCCGEEEIIIYQQQgghkkOjRv8FDahl0jZbDo8AAAAASUVORK5CYII=;" parent="1" vertex="1">
          <mxGeometry x="416.43999999999994" y="605" width="46.56" height="40" as="geometry" />
        </mxCell>
        <mxCell id="YKXpJ7-SHgZSjocbSze1-123" value="" style="shape=image;verticalLabelPosition=bottom;labelBackgroundColor=default;verticalAlign=top;aspect=fixed;imageAspect=0;image=data:image/png,iVBORw0KGgoAAAANSUhEUgAAANwAAAC9CAYAAADY8hN+AAAAAXNSR0IArs4c6QAAAARnQU1BAACxjwv8YQUAAAAJcEhZcwAAFxEAABcRAcom8z8AABGCSURBVHhe7Z0LlFVVHcZBCMbUBSmCaUBIaZIJWa4ellhSkJUgIiCSMsDADJAJtKyUAIXhNTxMMSQrxbKlVCAypsyDpynIyAgykAxvzVBBFBwQneHf913vyWk8MPecmTn3nHu/31q/JTPOXC7nnO+evfd/730aCSGEEEIIIYQQQgghhBBCCCGEEEIIIYQQQgghhBBCCCFEA5I5Nf/8YXnFvXPyijNz8lZA/leOnLUic/iMokHDpxdcPXJK4VnxwyWEP66fsLBZzszCMSPmrHpxxOyVNvq3JbKaY+aV2K33PW8I3/s5s1auGjmz+Jr4oRPCG2bWOHtG0ZRRd6+2uxdvs6fWv27PbHlbVnfr27am7KAt+udrlvuXMkPo3smZVXx9/BAKkThsJvGT+/78cit79Zjt3m+2+4D8mPHjUrKjwqY/tsWyphfsuWXamnbxwyhEYgyZUvDXiQ+9aBt2HrFduKi27auUJ7D89Up75aDZ0xv225h7n7Hh04t+Fj+MQtTOzRNWZGRNKyydu2S7wpag29+osk17jtpdD5fa4CkFC+KHUojaGTatsEXWjKJN85/caTv3H3e9wOT/y8Cx6Z37540I3LLH4odSiNph4IZNL9x4f74Cl6gM3OZX4oHLXfZo/FAKUTsKnHcVOOEbBc67CpzwjQLnXQVO+EaB864CJ3yjwHlXgRO++ShwOxS4BFXghG8UOO8qcMI3Cpx3FTjhGwXOuwqc8I0C510FTvhGgfOuAid8o8B5V4ETvlHgvKvACd8ocN5V4IRvFDjvKnDCNwqcdxU44RsFzrsKnPCNAuddBU74RoHzrgInfMPAfbiJkAKXqAycNhESvhg9+rFTh04vfHHuE9tt1wFtk5eIDNymPe/ZpIdLbcjUwofjh1KIxBgypWDRnQs2Wumuo9qbMgH3HjQrKD1gY+c+Y8NmLB8TP4xCJMbwGYU9c2Yur3zgHzts62sfxLb0ZvDkx+VW56W7j1jewq2Gvu+ro/JWdfjwKAqRINcvXNgke0bR7FvuecbuXVJuhRv229qXD9W/2w7buvJ3YYU9v/2Ird9x1NbvfM9Kdh2D79sLuz+wDXsqbcPeKivde9xKX7EPv8ev8Wd+b8OeKnyvMvZ9/k7JzmN4nfdir8XXjL0+/p6121z+/jq4Dq/33L8O2RNr99m0R7fYiNkrK7Lzin8SP4RCeGPCgysysmcW3T5y9uotP717tf18/oZ6d8xvn7dbfrPGRs5abtnTl9nQyUts0IS/2sDb/2wDbnvI+o6Zb71H3WM9s2faj4ZOtR43T4x975rhefjznbHv9cqZbX1uuc/6j/29DfjFArvpjr9Y5sS/WVbu0thrjpq9wm6991kbM2+963uoi2Pvf8FGzCquypm1cu2oWSv15BxRd7LveurC7FnFA3DHG5k9Yznkf/07dPLSW7/2gyHPX/zNnnbR135oF1x6lZ1/yRXW/qKv27kdu1jrtl+wM8/pYC1afcZOa3G2NT/1DGvStJk1atQYNjraul2n8U0+kTEXf459r2mzDMs4raWd/qlzrMXZbe2scztam/ad7LzPXRp7zY6XdLULv9rdOn39R8a/88o+Yxe7vS/PzuSxKM4ZNq2g95DcojaxgyVESPksfAhWQgYpUedBcjpcB91+5kS+A8fBM6AQaUcTOBiWQ7eA1HQj7AgdfgAroNvP1nQ1vAoKkfZ8AT4I34VuYaFH4XWwJnOg2887vgbvgmdCIUQcNvOWQLfQ0N/BU2BNzoG887n9Ds2FQog4DNF34NPwTch+Vs3QbILnwRPRAx6B1X/nfcjXegM+AC+EQqQ1F8P7IQPyKrwNTox/7cgg1TbcztDeDav/HsM2CrLJeRgegL+CJwuuECkJh9DHQ4aM4eAdqAsk/WD14PwBNoe1waZlCXR+bz/8CiTfg09Bfr8UZsJmUIiUJgMOgmWQF38B5MhhY+jQFzqh2QpZPkiUH0Pezfi7e+Cl0IF9xJvgy/ADWAS/C6v/3UKkBLyou8JlkGHYBnmXcbtzXQOdwN3Mb3jkXsjfZbA4+lkT3l3vhOzbsQY4H3aCQqQEX4IsVh+HHKJnH+3T8ER0hwzMn2Jfeac1ZKAZuJNNIr4Esrn6Hnwdsn93svclRKg5G7KfthcyQOyndYa18X24Hl4U+8ofN8I1sH3sq5PTDTp3XpYX2OT9BBQiEnwScsY8+19ssq2A7KdxVkkifBVykKMusK/IpulnYl/VDvt3zowXlhMYQDaB3ep+QoSGK+GTkHcLBi4L8uL3QqLBTASvr8X+HWelsOnLfwObwurfidDh1NOOQfaH2E9L9O4SRr4M2b9j6Fi6uAOybyhEUuH8RM6+/zfkxcmLlOFLBTiyyqYtywf8t3G2C5vKqt+JwDkNDoCsp7GmtQpydLE+m4NhgX3SIZAjn1WQU9CugKrfiUDgvMcnoPOpz37aqTDVYcmA/bv/QJY42IT+IhSiQeAwPYvEnMnxNuSQf1uYbrB/x6VE/MDhbBbW71pBIeoFXky3Q87MYJNqAWQxO51pCtm/WwlZ+tgMB0KvI7JC/A/2XfpDNhvZhGI/7WooPoJN6WGQs1p4x8uHrN8J4QlO6l0KeRG9BIdCBlC4wxII+3dsBbA0wg2OVL8TtcJFmhwMYB+NfTVeRO2gSAwuMfoj5AcVp7Sxfqf+nfgYnPfIzj/XkHHBJycOp3s/zS8sjXA+KJvgLJmwdMK5nSyliDSHnXzW07gok5/KxVD9tPqBS4/Yv+OACo8t92tR/y6N4YRiZ94jP4VZ3NWncP3DJvkE+BZkM51NdvXv0ogLIOtph+JyMab2+Wh4uP6OJRV+wHG+KUst6t+lMNzz4xeQ/TTu/8h+Gi8CERycDsbNa7kpLWuaLLlwDxeNAKcQnGzLk/oc5Kcr13px3qNIHjwnbMI7fee/Q/XvfMJRqrDIk7gIsja0A7IT7+xAzE9bt99pKMO8mNPt/TakDufDyZAjw6zh3QNZmnH7nWQY2nPG0T7unciL+1+QF3cYPAj5CUq5TyMHR7gw1O1nG1pumzAd1mXrhPqEHzhcMMslRSzuu73nhnQ75AgmVyFwXxXnPO2Dbj+fDHlcfg+/DUPDp2BssWLnzp2tT58+1q9fv1DYt29f1+8nwx49eljLli15Qe2CP4TJhE069mcrOnToYD179nR9z+kuj0u7du14zji4ditM+pIkvoG8U045xcaOHWu7d+824c7x48etsLDQLrvsMp5ALnGpvmdk0HAh6bHrrrvOSktL4+9QuFFSUmK9evXiOWO3hAX8pMINb/YPGjQodkGJ2lm3bp21bt2aJ5D1qGTsjsWtEl64/PLLbd++ffF3JU7Gm2++aV26dOE5+yfkrKSkMaJJkyb27LPPxt+aSITBgwfz5G2Bydj35BvQ5s6dG383IhHmzJnDc8ZxAC5AThrjW7VqZTt27Ii/LZEIkydP5snjk3KS8USb2M7Ojz/+ePzdiETIz8/nOaPX8iAmi/Ft2rSx8vLy+NsSiZCbm5vMwPWEtnjx4vi7EYkQmsCxP6LAeSPJdzgFzgdLly5V4KKKAhc9FLgIo8BFDwUuwihw0UOBizAKXPRQ4CKMAhc9FLgIo8BFDwUuwihw0UOBizAKXPRQ4CKMAhc9FLgIo8BFDwUuwihw0UOBizAKXPRQ4CKMAhc9FLgIo8BFDwUuwihw0UOBizAKXPRQ4CKMAhc9FLgIo8BFj9AETnuaeEd7mkSP0Oxpol27vJPkO5x27fJBWAKnfSl9oH0po0dY9qXUzsse0c7L0SNMOy/r2QIJomcLRJOwPVuAhPbpOWFST8+JnmF8eo5DWJ8PtxvygPmVv+/2un5Ml+fD8e7tdiwT8QPo9prJMpTPh6uJ25Mkk+UZsBi6ndyTeRjeBVtAt9f1Y7o8AfXz8BHodlxrcwZ0e81kGeZzFlouh2wSuJ1gN3knYq1K+Oc0yCbYq9DtGLvJ484BHZECjIduJ7m6fOwtnzGdjKH6VOUrkN2MKuh2zB35gdgNihSBQ7mrodvJpjvh96BoGH4KT9bKYFNSpBgcIDgA3U44B3oGQA7+iPrl0/AO+DZ0O/bPwfOgSEHuhG4nnAVN/pkDLFdDUXeaw2GwDPLYLoEc+at+7Dk49X0oUpSW0AmX40x4FmRd6g14BP4JXgKFd5rC7pBN+PfhZngDPB3WHDHmsRcpzrcg58Q5J30idLgAcsoVmz/vQpYG2kGRGF3gg5DHdS+8HfLDzOEp6Bz3UtgGihSHtRUGyTnxY2FNvguXQv5/Fj+Hwk9C4Q5HdidBthA4BWou7ARr8nfIY1oBf8xviPSATcs1kCc/i99wgQHrDzfC43AVVP/u/zkVsp/2MuSxzIdd4Yl4GPLnGMhkTNwWSYRlAH4iD459dWJaQTaN+LOsJy2AX4LpDPtpPH78EKqE7KdxYm9to7xsbvJnz4l9JdIODlf3+fCPtcI5kPMhR9bYx2MxvS1MN74MnX7aHvgryA+lRBgHEz3eIgVhk4h1Ii9wAeITkBfcJsgmKV8n1eFxYt+Xk5PZxObg0hehFzrG/yuEJzhXkEPdrDFxhjubVhwK54TXVIN92SFwG2ST+ml4BQzNUhWRPpwJ2Uz6N+Qdj0tdLoapAAPFfloRdO7mXLjKtXRCJBWGbB7kBOjXIWt7UZ4EzX5abFEx5Ix/9nU1k1+EDs7XfBLyQt0K2b+L0vxMFqLZT3sN8t/ADxG3epoQoYF9Hja9GDgOma+AV8Ew9++4UJflkXLI6VjLIOtpWoApIgOXBLF0wClOvFs8ADvDsMF1aAwY3yOL/DdDFaVFZGGRnE0zDqWzqcb+nddSREPA8LOe5vQ7WU8Lw/sSos5wxI9NNOdOwiH2TMglLEHDfhqXKXHnZw7zs5ivfppISTiAMgg6a8QKIPt3QdS02E+7CXLeI2uHHO7nJG3V00TKwyH2X0Nnkx3277i0paFgPc1ZGsNlMby7qp4m0g7W7zhFikFg8ZxNvfrcSpv9R/bTuLaP20uwn6btDERaw6F3zs9kE49D8mzycaSQ08f84txBD0IOirCInYwn9QgRWjiAwqYeF7zyjscmoNet4xhS9tO4BMbpI2rPECFOAofmOT+TQ/VcPc27UyLr7zh5mhOLnX4aB2fSYRWDEPUC+3ccTGGAuCSGRXS3+Yxcp8d+Gtfpce9Hzns8FwohfMDdwxZCFs1LIPfP5BYRXDX9S8hFoHwiTx7UBGORFnBLbzbhRtazwyHXoo2B3HufdzsWqzlBmvtp8mvKBbH8WW52lA3dXqsucu3f56AQSYX9rfugM18yleVAzGiYiotsRQTgfouLmzdvbllZWbZ8+XIrKysLxM2bN9tLL73k+v8awkWLFln37t2tcePGnA/KWqFWEYhA4XSo2zIyMiwvLy/+cNrU5vDhw5aZmck7HaeF6Uk3IlA4L7GMjxGuqKiIX5Kpz5YtW6x9+/YMHUdP1bQUgcEBhEPjx4+PX4rpQVVVlfXu3ZuBWwdV4xOBwUL0oalTp8YvxfThhhtuYOBehHWZeiaEJ1iUfmfKlCnxyzB96N+/PwPHmSwKnAgMBU6BEwGiwClwIkAUOAVOBIgCp8CJAFHgFDgRIAqcAicCRIFT4ESAKHAKnAgQBU6BEwGiwClwIkAUOAVOBIgCp8CJAFHgFDgRIAqcAicCRIFT4ESAKHAKnAgQBU6BEwGiwClwIkAUOAVOBEhsE6Fp06bFL8P0QZsIiWTQER4aN25c/DJMDyorK+3aa69l4NZCbZMnAuN0uKlbt26xHYnTBW6v3rZtWwZuHtRGsCIwuNX56GbNmtmkSZNin/ypzltvvWU33ngjw8ZHGF/JgyBEkPAZbY82bdrUBg4caPn5+bZ+/fqU9JFHHrGuXbsybHyuAB/Mzw8cIQLnbMgHIW6HvCBT2Rcgnz2nsImkw1HLfpAPxU9Fe8H2UAghhBBCCCGEEEIIIYQQQgghhBBCCCGEEEIIIYQQQgghkkOjRv8FDahl0jZbDo8AAAAASUVORK5CYII=;" parent="1" vertex="1">
          <mxGeometry x="336.4" y="602.15" width="53.2" height="45.7" as="geometry" />
        </mxCell>
        <mxCell id="YKXpJ7-SHgZSjocbSze1-125" value="" style="shape=image;verticalLabelPosition=bottom;labelBackgroundColor=default;verticalAlign=top;aspect=fixed;imageAspect=0;image=data:image/png,iVBORw0KGgoAAAANSUhEUgAAAN4AAAC9CAYAAADcB8NDAAAAAXNSR0IArs4c6QAAAARnQU1BAACxjwv8YQUAAAAJcEhZcwAAFxEAABcRAcom8z8AABEOSURBVHhe7Z0HdFRVHsYBKYKIBVlBXAVFBSw5KosNZXVlVVhKKsI2xbUAKlJssBRBLKBgcItu87igriACKUAAwaUIAlKSCSBZFZAmLbQo0u5+3/Ce5sx5kJk3Sd7Mm+93zu9Aykxe7syX+/7vlldFCCGEEEIIIYQQQgghhBBCCCGEEEIIIYQQQgghhBBCCCF8yKr305quyU5LDuQm3x/ITZOlXJuTct/qaamdl09Mv8hqLiGiw0xMPy2Qk/xY0Yy0lWunp5kt87uZrQu6419JT7RFN1OYm2rWzUhdnp+V/LDVdEK4w5gqVQuyUoZ/PjP92J5VA82BDRPMd1tzYK71r7Tb4sBX482uFU+aolnpRwqmpT3FtrOaUYjIKJiW+qs1uaklewpGmmN7lxhTshrmSycP5psjexaYnauGmnXTU/YX5mTcZjWjEJFRkNV5/PYlPc2RnXPx5kLo9i+XJ/UzY74tMIe2TjdbP3nQFEzrPGYiTtOtphQiPNZPv7teILvLwuL8IcYcWAHxxnJ8w8kfPLDSHCtebL5Z8UdTkNVx9tqFPc60mlOI8AjktG8YyE1eUhwYab2pFLwyxR+o4zgl37nqOfR4HResnNL5bKs5hQiP/Gkdzw/kpCwuDjxvvakUvDL9IXjDGLz5Cp6IGAXPhQqeiBYFz4UKnogWBc+FCp6IFgXPhQqeiBYFz4UKnogWBc+FCp6IFgXPhQqeiBYFz4UKnogWBc+FCp6IFgXPhQqeiBYFz4UKnogWBc+FCp6IFgXPhQqeiBYFz4UKnogWBc+FCp6IFgXPhQqeiBYFz4UKnogWBc+FCp6IFgXPhQqeiBZtduTCH4KnzY6ES76YfedZhdnJC4vzhwbfUApeGHJ7v73c3m+wKcjuOEfb+wlXFGR1fnf7kl7myM6PjTmoDW3LlBvabptpti1+GMHrnMn7TlhNKUT45GcnJ6/JTf1uT+Alc3zf0hO7SUtnD+abo8Wf4DRzuFk7PbUkkJt2h9WMQkSGMUOrBbKTR63PyzB7Vg8xJZveN4e255W733+TZw7vyEPPOssc2wV3zzZmDyyec8J9H6FHgQfmnrBk3o+f4/8PWp/nx/z8XutxeI5ju+is4HPzZ/BnOR1DtJZsfM/sWvmMKZqVcTyQlTKEbWc1oxCRE5iYXrMgK+XJoplphQzg1oW/MdsWQf5bTm6e/2vzxex7TWFuuvlsSor5dGIX898JHU3eP9ubnDfvNhMz7zQTRt9h/vViW/PGc7eaV566wXww7k4zfvTtZuyzN5m/PtfGvIWvvfPKHWby6+1M9ht3BR/L5/h0UhezAs+5ZnpG8Gds+rj7id+hvERb8PnWzUg3n89IzS/I7tLHGKM7BYnyYdWHXS7HX/Lugazk3jj97B3Iis4Vk5MfH9Dj6gXdO1xqMu5pajrdcZFpd/MF5tZW55sbkxqYpObnmiua1jNNL6xrfnLu6easujVM7dNPM9WqVTE4nMMtL603tuF5p7+O/5uqVasEv3b2mTVMowa1TZML6prLm9TDc5wTfK7bWjU0d7VpHPwZaXc1Nd06XGIGPpQ0y+m4IpVtsSYnuRf+OHXNz0m5JNhYQsQ4F8A34WHIQIXrB5CwZ8mGTt9zMg/B0fBcKETCwvB0g2uhU1BC3QCvhjY3wh3Q6XtDXQk7QyGEBU/T/gT3Q6fQ2PaCoQyAp+o198Kx8EIohAiB417vQqfw0MnwdBhKHTgdOj2G/gMKIRy4CU6Fu+A+GBoenmJeBU/GzXArLP2Yo5DPxVPR92ArKIQAzeE4yJBsh8Pgk7B0gI7Ax2BZ9IWlH3cAPgtHwN2QF1ZehpdCIRISXlVkwL6CDMkE+DNI7oKlAzQR1oZlcRacCe3Hsbfjc5FbIJ+Hn/8c9oH1oBAJQQ3Iq5irIEMwH94Dq0MbTreyw7MNXgPDhaes7Dn52J3wdmhTCybDZfA4XGp9rDmVwtewDsuCDMWXsCc8A4ZyPeT38PTzEX4iQgZDPp71IocbQuFynX5wE+T3vQ9bQyF8RQuYCVmrsRd6EZ7q0j4vojAQ02A4p5ih1IeLIOu60mN+oXAI41VYDEsgB9ZV/4m4h3Xc05C9G4P0NmRvVhbXwQCM5ipkO8hTSoa+LNgrstfjMa6Hqv9EXMKxtq5wNWQvx96HdRzru3C4GEY7w4Q/Kw02DH5UNjxm1nufQR4zQ8tjqAmFiHl49XAKtHsPzjRxc7roFezpnoBfQP4O/4E3QCFiEp7ScbUAa6U9cCRsAuOVZnAM5Fggp5yx/tPqAxEznAOfgV9D9hDj4bXQL7D+mwT5u7FWZW+o+k94BudHZsACyJpoIQwdj/MLrPNS4HLIIQ7+y/qP44JCVBq3QbuOK4Qcj2MQ/Q57Ok5LY+1q139O44RClCtXwL9ALt2hwyGvQCYal8FRkHM/OVbIWrApFKJcYR3H8bhv4DHIeZWRTOPyK5ztwvqPbcJZMKz/OF9UiKjgMADrOK7c5tzGBbAj1GY+P8K2YP3HeZ88/VwCO0GN/wlXcHIxp2zZdRznTDrNqxQnYE/HGS9FkG3GmTCcmypEWFwOuQERx64OQq5lS8Q6zi2c62nXf5yk/RpU/SdOSgPIOo6TmL+D70DVce7hnFTuhsYAcmkT6z9O3hYiCOcodocrIE+R5sIOUJQPqZBzVdm2i62P/TjWKSLgF9DeJIh13AOwLhTlC68K94b/g2xrbtp0KxQJhl3HcSyOcxE5HtcYiorlIsg9X3j6yRqae83E83xWESZcIsM6joO+vHCi8Thv4N4yHP9jLc3673F4HhQ+w97nhGNMPNXhhkD2JkDCOzgmypqar8nHkOsHtf9LFLDxYsWfww8hd1rmGrOHIGsOwsFfp8dUlLF86yoem9MxV5T2JAReTX4UcnUHe0CO/3HDJqfHeGVMw0nCv4O5kNvH8U0eC3I/Ef5Fpdzujlsq8D4FTt9b0XJ1N+c1JsFYgad9XEfI2TlOx1zRroG8sMVa236dWAo4fa8XroPcaJhnTE67eHvK+ZAz1c31119v0tPTTdeuXWWI7du3N/Xr1+cbi3XNvdBr7oM7GjVqZDp06OB4zF6YkZHh+HkvTEtLM0lJSfYfhH9D7tAWE7Cn+3udOnXMyJEjzZYtW4w4OXPnzjWtW7fmi8hV6lxe5BW/hPvatWtnFi1aZB2dcGLjxo1mwIABpkaNGnzdeCU2Jk4/ORZ2mAcmwiM/P980btyYLyLrGS8Gk/kz57Ro0cKsX7/eOipxKo4fP2569OjB14xbe4SzU1yFM6hu3brBN5MIn549e/JFZC3MNX6VDccxd/ft29c6GhEO8+bNs0sFbr3vOZnNmzcPdscifMaMGcMXkOv7eAWvsuEp7v7MzEzraEQ4FBUVmWbNmvF14wUyT+El4cwrr7zSbNiwwTo8EQ5jx471NHhVq1bdN27cOOtoRDjEXPBatmyp4EWI1z0eg6ceLzJYDyt4cY6CF38oeD5AwYs/FDwfoODFHwqeD1Dw4g8FzwcoePGHgucDFLz4Q8HzAQpe/KHg+QAFL/5Q8HyAghd/KHg+QMGLPxQ8H6DgxR8Kng9Q8OIPBc8HKHjxh4LnAxS8+EPB8wEKXvyh4PkABS/+UPB8gIIXfyh4PkDBiz9iLnjacyVytOdK/BFLe64Q7TLmAq97PKhdxiIk1oKnfTVdoH01449Y21dTO0lHiHaSjj9icSdp3TshAnTvhPgjVu+dQHS3oDDU3YLiz1i+W5BNrN4fbzO0G86NG6HT87oxUe6Px5tMOrVluJZnm0drTN8fL5TSd9P02sZwDnR6gU8l75E+DJ4LnZ7XjYlyR1ieAY2Fh6BT255KvsnrQ6fn9UrhklvgLuj0Qju5DPL+3MI9HOPtCnkHXqc2dpJnJ9dB4SOGQqcXu7TfQxbPF0JRPlwC34RsW6c2L+0TUPgMFsV50OkFp6wreKVPVAxd4Bbo1PZ0FjwDCh9yO+RlfKcXnkV0d1gbivLlTPgg/BI6tf1WeC0UPmYgPAZLv/CL4RLr/3NhByjKh1T4CWTbLoR2O5e2PxQ+h6ecDFfpF34kPA9yKtAO+C18B8bSZf94g8MUkyGvbLJHexTyCvFoWLrtsyB7RJEAcMZIMbRf/GehzWXwDbgXcnrQ8/BiKMLjUjgK8mIKryS/BptAmxeg3e7boU4xEwyO0dlvgMf5iRBYD06D/HohfASq+D85Z8E+sAiyzTiT6WYYCk/1+XWe7sfEZGNRuTSAdu3xAD/hAC+0ZMAV8DhcADm+xzEqcQIOvLOO49gn25I1XCdYEzrBcPL7smHMzwQRFQNXVuyGvw9+dHLOgU9Brp/jX+oJ8BqY6LSGH0C2CaeJcRyOPd+p4PccgHysSGBYc/AvdDhw7dyf4X7L4bB0/ZIosA5mHccLJ/zDxfmnTWE48I9cvxP/FYkMe7NIZ5zz4syHkKdMrP96Qk4S9zv1YF+4HvJ3fw/eCCOBV49VKwvXMGis//LhEbgItodeLGytaFivpcDl8ChkPdcZ1oJCeAJ7zGegvRRmPPTTJXL2aJMgfzfOPOHFEfZ8QsQELSDXtXE5EaelcVA+nuu/ZpC1G38fjmly4JsTnoWISbgEaQpkD8FaqBeMp/mfdh1nz6vkeNwNUIiYh+NTXIu2Gtr13z2wBoxVeMzJkKvkecys4041HidEzMK5iU9Du/d4G8bEDlUhcG9P7nhm99Kq44QvYP2XCQ/DnfAl+FPoNazZXoX2vFTWcZxrKYSv4NxFzsa3rxBy/M+LMS2OW3IQexPksbC342oCIXwL6zzuWLUK8k0/H7L+q4zxP467sY5j/ca5p0utj7Whj0gYWP9xdv5XkAHk+r+KnL/Iq60TIX8Wt19UHScSmuaQGyxxojEnYb8My3OzJdZxrC85p5JzK1lfqo4TwoJXFrlUhhdgNkCu/4umR2Idx5UA3GCIi1I5+6QVFEKEwFqLW7vba9tY/3H/l0g2wmUNyR297L1NuJ8M6zghRBlwJ2VuAMQtB3kRJNz6rw2051VyPO4xGOnKCyESHq57Y33GFQH2+J9T/cc5oawTOUeUp5WsExNxnaAQ5QpvJPkW5Bbn3BL9Icirolzb1huyd+OYHDdpUuBEQsE9/7m6mkEoT3mR5Q+Qp43cl5KnkZQ7L88r9fFHkN/P7+VjQp8nWn8Ltd2FiBnY63ALO9Zjdgj8Kmfb8DS2rH1VhKhQeLl/Uq1atYK36Z0zZ44pLCysFAOBQFCnr1WEeXl5wRs1VqtWjQHkDRq1Q5jwjAEM3ahRo6yb9vqbo0ePmoEDB9q9H09nhah0uLj1s7Zt25qSkhLrrel/iouLg7fbxu8+HWrrdVHpcKu/zbwpfaLRv39/Bo/zPXm1VYhKhTc02TJs2DDr7Zg4DB48mMHj5O6WbAghKhNeWt88ZMgQ6+2YOAwaNIjB4xVOLvAVolJR8BQ84QEKnoInPEDBU/CEByh4Cp7wAAVPwRMeoOApeMIDFDwFT3iAgqfgCQ9Q8BQ84QEKnoInPEDBU/CEByh4Cp7wAAVPwRMeoOApeMIDFDwFT3iAgqfgCQ9Q8BQ84QEKnoInPEDBU/CEB2izI212JDyAW9t93a9fP+vtmDj07duXwVsHeTcjISoVbmG+tE2bNmb//v3WW9L/7N692yQlJTF4OfAMNoQQlU2fmjVrmhEjRgS3N/c7hw4dMuzh8XvTB4ItIIQH8C/++OrVq5tu3bqZ7Oxss2zZMl86depU06lTJzt0f4M1oRCewVsdvwCLoP3G9Ktr4VCoU0wRM1wFM+D9PjUNavhACCGEEEIIIYQQQgghhBBCCCGEEEIIIYQQQgghhBBCCJG4VKnyf+tvF1/T8ipgAAAAAElFTkSuQmCC;" parent="1" vertex="1">
          <mxGeometry x="373.00000000000006" y="600" width="52.86" height="45" as="geometry" />
        </mxCell>
        <mxCell id="6GxZAxuU6wFZJalrGuod-9" value="" style="shape=image;verticalLabelPosition=bottom;labelBackgroundColor=default;verticalAlign=top;aspect=fixed;imageAspect=0;image=data:image/png,iVBORw0KGgoAAAANSUhEUgAAANwAAAC9CAYAAADY8hN+AAAAAXNSR0IArs4c6QAAAARnQU1BAACxjwv8YQUAAAAJcEhZcwAAFxEAABcRAcom8z8AAA/SSURBVHhe7Z15kBTlHYYFoq4XarS8L9SAMYlHCEajJhIVhd0FFlhQKxq1osYDPDCawpA/clSpFVFjaS5FTaKJiaSEZbnxKMAjeACKGmM0iZGUB96rgMeX9xm6k81WLzu9s/RMz7xP1VPsDjPd3/d2/3bm6+ObTYwxxhhjjDHGGGOMMcYYY4wxxhhjjDHGGGOMMcYYY4wxZiNyz/Dhu81uqh8+e0Tj6XOaGs5otQXJgkzIhoyiuIzpHiGEXi0j68+c19T48KyRDZ8sHjcqLBk3Oiy2BddnMSqQDRmRFZlF8RmTjtYR9RPnjRq+bvnEC8NLt98aXmudEV6bNVP/tlgsZDGjkA0ZkRWZRfEZUzyzRp946MzGoW+umHR5eHfRA+HDp1ZEPtnu51r3f1mQEVmRGdlFMRpTHDMbT7xm0RmnhtdbpoePnn4qrHnisbDm8UdtksqGjMiKzMguitGY4mgZNmThsksvCmspNBdb1yojsiIzsotiNKY4WoYd/+CKyycWPi654IpQGZEVmZFdFKMxxTGj/vglKy5TwT253AVXjBScsiIzsotiNKY4XHApdcGZUnDBpdQFZ0rBBZdSF5wpBRdcSl1wphRccCl1wZlScMGl1AVnSsEFl1IXnCkFF1xKXXCmFFxwKXXBmVJwwaXUBWdKwQWXUhecKQUXXEpdcKYUXHApdcGZUnDBpdQFZ0rBBZdSF5wpBRdcSl1wphRccCl1wZlScMGl1AVnSsEFl1IXnCkFTyKUUgrOkwiZ7qK/0vcy5du6ZY+74IpRGZEVmZFdFKMxxdHSeOL1i848LaxubVk/EWzSTmb/KxmRFZmRXRSjMcUxq6lh0MzGoe88OXlSeO/BxYWPSx8+GU3xzb/2/zIhI7IiM7KLYjSmeFpH1E9aMHr4RysuuyS8fOdvwhtzZ4fV8+eEN+b1jKujf9/UMt+aPze8vWBueGfBvPDuwnnhvYXzQ5t8/9754YN7F4Q19y0Ia+9bGNbdv7DwO/Izj/F//M5zec17ev27Wg7LYpksm3V0XH+pFrJQJmRDRmRFZlF8xqQjNDf3mdnUcN7cpsbH544eHh48pTk8dMpY/dszsqwlJzeHBc1NYfboEWF6U2O4e/iwcGf9CeG2oceHXw75erjh2K+FKYOPDld99cjwgyMPD5O+PChMOebocI383uGDCo/xfzx247HHFF5zu17LMv6oZbHMOVr2fWNHh8Unj0lsR3ddn0VzIBsyIisyi+IzpnvMaG7Ya/bIxrGzRjScN7up4fzWEm0ZWX/BWV848L7GffuFYf32DoP32D0ctduuYdDOO4WDd9whHLD9dqHfttuEPbbaMuxYt3nou9mmoa5PH754Lag5Yde6uik71W3OOKnwWF3v3qHvppuGnbaoC7vrNftt27ewjIO0LJbJso/ba88wdJ+9Q8O++wTWPX3EsPFJbUsjWRQyUTZkVAjLmAplZ3mj/EAWCqlI/ySht5wtk57TmWslhbqTNKbm4NtCx8plMqlAOrpKDpQxX5I8lvTcjq6QzdLfUGpqnn7yBrlaJhULfignyI58V34ik16Db8mfSn/kM6Ydn5JTZVLR4Ay5mezI1rJVJr0Gb5N8/DTGRPDR8C75qnxbdiwaHj9IdgbnvXhOx9exLB5n2e0/ihpTk+wnr5LrJB8nvy8vke2L5mN5nuyKS+VHsv1rWdZkybJZB+tincbUFH3lhfIvksLgHehICcdJiiwumplyG9kVPKf9R0uWwbKAZbMOHmedrJs2GFPVcFJ4pHxYcqDjz9Hv7cdmx8v3JcXxD3mwLJYjZHzU8j15rIxhHayLdbLuR6LffaLaVCXxOI1ieEleLJPeuY6S8TjuIh5IyXckr+XoJMvqCOtk3bSB59Em2mZMVcCY6UrJO86b8jq5v+wMDoBQcPNlHQ+khI+KD0jWtaEDJbTrWsnzaBtt9PjO5JatJOfNnpPxO8nhsisokkWymOd2xjGSoju08NuGYT3xOy9tpc203ZhcwFipUTJW4mT1Y3KULPbdqr8cKks9d0YbDlz/Y5fQNtpIW2kzbef1Sef9jKkY+Dh4h+Td4kXJofrtZBp68tIrTqanYVtJm1+Q9IG++N42U3HsIznHxXioTU6RvFPllc9Ixnf0hT7RN/poTFnhsqrxMn5HuFuWMvaqNOgLfaJv9JG+0mdjMoWxTb18SHJ1xxOSK/GrccxDn+gbfaSv9Jm+e3xnMqH9OO152Z1xWh6hj/SVPnt8ZzY63N5yteRiYG7k5HzaAFlr0Gf6TgZkQSa+9cf0GFyZca7kqCPXJ06XXEJV65ABWZAJ2ZBRMdd8GpMI1xgyVuEkNB+hHpXjZNpD7dUMWZAJ2ZARWZGZr880qThMtj+fNlF+WppkyIaMyCoe35GhMRtkD8k5p1ckH5UYq+T5fFrWkBWZkR0ZkiWZGvN/cASOmzy5gn6NZDqDajqfljVkR4ZkSaZkWwtHck0XcL1ig7xf8lFoqTxJeg6Q0iFDsiRTsiVjsna2NQrnkO6UnMyN70/bUZqehUzj++/Imsx9/q6GYEzBuaM3ZHw+bUP3p5megYzj83dkzzbw+K6K2V6eI/8u2egtMp5HxGQHmZM924BtwTZh25gqgnND8yRjicVyjDTlhW3AtmCbsG3YRqYbcNKzUuTuaSZCfUdymJr5PnaTwH1nSa/ZWFbywQLaltTmjWV8zx/bgm3CtmEbsa3YZkmvKZcVCVccnCgZED8t/1Yhvib5C4rc2/WMXCmTnrux5Wp7pjOvpAl7aAttom1Jbd7Ysi3YJmybeDuxzZKeWw7Zl9mn2bcr5goj5r/4iVzbv3//MGrUqDBu3DjbwYaGhrDLLrvEOxTjlnK+47Hus+VrtIm2JbW51mVfZp9WTow32ccrYq4XLukJp59+eli5cmUwnbNkyZIwePBgNuC78gTCKxOs+x3aQptM57BPs28rL7yU8MoJ06o9O2TIkNDW1hY10WyIZ599NgwYMICNd48sx+zHrPMe/nLTFtM17Nvs48qNWavLOpUgdwKHadOmRU0zxTB58mQ2HhO1HkCIGcM637riiiui1phiYB9Xbsg+XzbOkmH58uVRs0wxTJ06Nd54XyTEjGGd4eabb45aY4qBfZzcJPt82XDBdYNbb7217AV3yy23RK0xxVBRBbds2bKoWaYY/A6XP9jHyU264PKGCy5/uOByjAsuf7jgcowLLn+44HKMCy5/uOByjAsuf7jgcowLLn+44HKMCy5/uOByjAsuf7jgcowLLn+44HKMCy5/uOByjAsuf7jgcowLLn+44HKMCy5/uOByjAsuf7jgcowLLn+44HKMCy5/uOByjAsuf7jgcowLLn9UVMF5TpN0eE6T/OFJhHKM3+HyR6UUnOel7AaelzJ/VMq8lJ55OSWeeTl/VNLMy+DvFigSf7dA/qi07xYAf3tOEfrbc/JnpX57DlTq98PxlbbxX6fu+C+ZtNzuWCvfD0dmSVkW6wsyabnlsCK/H64jSd8iWS63kXfLpA27IT+UP5N7yqTldsdyvqN1BW1LanN3JLNfSDJMynZD/k5uLpOWWy5NSj4nX5RJGzjJ5+QZclNpusdm8luSLJMyTpJt1E+aKqBwvrALP5K/lp+Vpmcgy9/KYt7tvilNlbCl/INM2tD4uvyGNBuHUyVfnJ+UPfJl+v74VmXw17azj5ar5PlyO2l6lm0l2f5bJmXPga1yXABgMuBcyUfH9ht8pWyNfl4qT5KVfIAjL5AhWZIp2ZIxWbfPnsPtp0lTpXAg5Pey/UZnjMHRTIrxn3KNnCGPkKZ7kB0ZkiWZki0Zk3X77O+QvaSpYj4vX5LxRv+5jNldXiUZb3wir5P9pSkOsiIzsiNDsiTTmF/JOHc+Su4vTQ3AVRbrJBt+Cg904DDJX1/+n3Efl6/tIE0yZENG8RiZ7MiwI9dL/p/sOZBiagROrk6TbPwf80ACHDWrl4skz3tUjpMVe8VBGSALMiEbMiIrMuvsiCNZ8zyOGNfxgKkduC+Mv8iTC791ztaSMQjP/VhOlx7frc+ALMiEbOJx2ob4ofyr9Mf0GoWrIb69/scu4ZIlxiSvSo6uMVYZIGsN+kzfyYAsyIRsioGLtsnc1Ch8rEl7OdEgGY/vuMD1UlkL5+/oI32lz/SdDMgiDRxA4eO8MangWkHGKg9KzutxtT13AvN4tUGf6Bt9pK/0mb5XY19NhcP4brzklhL+6nNnwuGyWqAv8d0W9JG+0mdjyso+krHMm7JNcqohzwcGaDt9oC/0ib7RR2MqivbjO47c5W18x3WPtLn9+bS04zRjMoWxTaN8RHJbymNylKzk8060jTbSVtpM2+mDx2kmNzD/xQQZ34TJyd5KHN/RpvjWJdpKmytm7g5j0sK0aldKZupiPMQ5rEq4hpB20RbaRNtoY9mngDOmp2DCnrsk7yRcPH2xLNe8lKw7voCbNlXSxEbG9BhcYzhSPiy5op57xfg9i5PBrIN1sU7WzTiN332ntal6eJe5UDKTbzy+O1JuLFh2PE5jnay7HO+uxpQVxkyc4+J2ldWSMVVPnu9iWddKls06WJfHaabmGSi5XYiiYH4VjhRyTqy78FqWwbJYJstmHcaYCOYAGSMZ3/HRb4lkjJVmfkzuT+M1vJZlsCyW6TlajOkErkzh3el5GY/vviK7gufE4zReyzI8C5kxRcJtQ1dLJuJhDMa1jXvLjvAY/8dzuEeN13gGY2O6CcXD5DucN3tGcmf1jpH8zGP8H8/ZVxpT9fD9BczczISnPSl3o3OHND/fK/m4iPzc8XeeE9/B3n4ZPSF9o4/GlBXGSD+SzNMR7/zVKn2krx4XmrKwhZzap0+f0NzcHGbNmlX4tsxqlL7RR/pKn6O+G5MpJ/fu3TtMnDgxrF27NvqC2uqFPtJX+kzf10dgTDZwn9icgQMHhldeeSXaJasf+kqf6XuUgTGZwHWIq84555xoV6wd6DN9jzIwJhO4dGr1hAkTot2wdqDP9D3KwJhMYGd7ffz48dFuWDvQZ/oeZWBMJrjgXHAmQ1xwLjiTIS44F5zJEBecC85kiAvOBWcyxAXngjMZ4oJzwZkMccG54EyGuOBccCZDXHAuOJMhLjgXnMkQF5wLzmSIC84FZzLEBeeCMxnignPBmQxxwbngTIa44FxwJkNccC44kyEuOBecyRB2Nk8iZExGMEXcy2effXa0G9YO9Jm+RxkYkwlMgtp6yCGHhFWrVkW7YvVDX+kzfY8yMCYzxvTq1StccMEFoa2tLdolqxf6SF/pM31fH4Ex2VEnb2IHbGhoCNOmTQtLly6tSukbfYyK7aao78ZkztZyklwp2RmrWfpIX+mzMWWlv+Rj1hlVKn2jj8YYY4wxxhhjjDHGGGOMMcYYY4wxxhhjjDHGGGOMMcYYUx422eQ/wQYh1Qm2ANkAAAAASUVORK5CYII=;" parent="1" vertex="1">
          <mxGeometry x="275" y="605" width="46.56" height="40" as="geometry" />
        </mxCell>
        <mxCell id="6GxZAxuU6wFZJalrGuod-41" value="" style="shape=image;verticalLabelPosition=bottom;labelBackgroundColor=default;verticalAlign=top;aspect=fixed;imageAspect=0;image=data:image/png,iVBORw0KGgoAAAANSUhEUgAAANkAAACeCAYAAAC/46+iAAAAAXNSR0IArs4c6QAAAARnQU1BAACxjwv8YQUAAAAJcEhZcwAAFxEAABcRAcom8z8AAAsoSURBVHhe7d15UJT3HcdxY9vYduK0To902rSdJm3N9B/7T+0Ya7U2dTwWdlk0JqIBlkMWpEFjHS9YvOXUSNTEqjGaaLxwF3YXcNldUA4FuUFAvABP8IwaD9Bvf7+HB0vMqjxGdvnp5zXzHl30r1/2wz5skmf7AAAAAAAAAAAAAAAAAAAAAAAAAAAAAAAAAECvkVQw/QeG9KARsabgd2LTg/3Q1zOk6TTzjbqB8nEBKGMwBY80mILMMSbdtWXZeopzhlOcA92PncdCawgtsAQfjk0LNiwz6wfIRwfweGxcow1pgedW588lY9Vmym3YS/uPZqMHstWbaPOhJIqzRxB7Vdv0oTP8JfkIAR6Of0eONgYeXFMwn/KO26mupY7qW4/QEfSN+LlUn62kneXraUlmGC1MD9GxI3yh4yQBHiImXee3yDz1jrV2B3siNdDhczVUc64aPSQ+tLJTh2hdwSKav8c/N86o6y8fJYBrMWmBS1bsm0nFzQeo9nytyycW+nr8m9GusvU0L3XyFYNR90v5KAFcizH5J6UUzKLyUyUYWTc7euEY7anYRHNTp9xetCfg1/JRArgWbQxIXJU/S7oEwsi6Fx9ZasUnNHf35FsYGTwWRqY8jAwUwciUh5GBIhiZ8jAyUAQjUx5GBopgZMrDyEARjEx5GBkogpEpDyMDRTAy5WFkoAhGpjyMDBTByJSHkYEiGJnyMDJQBCNTHkYGimBkysPIQBGMTHkYGSiCkSkPIwNFMDLlYWSgCEamPIwMFMHIlIeRgSIYmfIwMlCE30inY2S4kU536xgZv5HOZNxIBx4v2hi4fGXef6ikuQgj62YNF47S7vIN/G5V1xanT/2VfJQArs1PCwhebNW37603SnfJdfWkQv+vrqWeKs+U04YDy2jenneLlttCfyQfJYBr/OacMcbA6nWFC6ioKZ/qW+ulW3UjV9VLr/amqs9ouS2CFqQHRxERbtMNj2dIC5kUa9Ld+LgwlrLqUqmosYAONR1AD8Q/K2B7+VpKyo0ig0lnXWqL+Il8hACPZ0gLmhRjCipdaA69m7xvOq3Mm0Er9qPO+HnE2SNpoSXkHDur9Ya00N/IRwfQfUuyg16O2eM/Jdqomx9r1BliPFhselD0pJhRplGBg0/P3em/yNXfcWfSeaQFTo/eEzBMPi6AZ8Jq1iXW69IjAHiq+CvGdRaxtrPwBgPAU/Qd1mYWHxjvCusfLAB4St5gfcXqHBnvc9b3WADwFGxldR0Y70vWcBYAfEv8ZzF+efjgyHj8EpJfSgLAE/ouq+vPYg/G3wgZygKAJ/SoV7HOtrEA4Anwy8BPWK6G1bVrLPwLYYAnMITF39zoOij+DuM91s0uX+PxN0bwsxmAQvwt+s4R1bAC5a/xkU1mbWS1sfif32CNYAFAN/2TdYfVxJrJ+h2LW8Lio/o+i78pwv/eDla7/OsPWQDwGH1ZC1h8UK/wL3SRyOIje1l61OFF1r9Y/JJxEP8CADwa/684BnT89htcjaxTPxZ/hQOAb+FRIwOApwAjA+hhGBlAD8PIAHoYRgbQwzAygB6GkQH0MIwMoIdhZAA9DCMD6GEYGUAPw8gAehhGBtDDElh8ZD+XHgHAU7ecxUeGD9qDXm00K59VzqoSLH7THD6yui5fe9Y7yNrF4v8nOAgiiMWfqCdZrv6h9uaKWfwbRGWXrz3r8fuYXGXhluQC8Wfxkf1ZegS9Hb93Cb+JK0YmkM6RDZYeQW+3m8UvkzEygXSO7K/SI+jtMDIBYWRiwcgEhJGJBSMTEEYmFoxMQBiZWDAyAWFkYsHIBISRiQUjExBGJhaMTEAYmVgwMgFhZGLByASEkYkFIxMQRiYWjExAGJlYMDIBYWRiwcgEhJGJBSMTEEYmFoxMQBiZWDAyAWFkYsHIBISRiQUjExBGJhaMTEAYmVgwMgFhZGLByASEkYkFIxMQRiYWjExAGJlYMDIBYWRiwcgEpGXxkf1RegS93VbWlx2/BZeM3t79LWqVr8VrzByr91iD2cMtGjI4ddLAP9DqEcPWufpzd8bPg53LLLPP2NFOw/Be9dFAUxOcI/Txjhlh8dkGTzZMG3X4L6MCbocuz1rg6s/d1dQE+5yweJtv+IfOl+Qj6h3MWu83Ld4qZ6av+mbBlLepyH8SHUT34+eR5zeRsnzVVzLUqlSzWu3xT5qJjLe+NjXRsTkiObdl5toimr2hgmavf76bw85g1rpSmpacczMs0e7Ux9velI/Ls6wazfAMjaqpRB9CJ//7EV3OzqKruU66muNAnbHzuJiVQcdSVlKRzp8yNarSTK32dfkI3S483vkL9upln72+jDbZTlJ+7VUqPXGDSo8/5534iooartPuvDO0YEs1hSU4miKTHMPlY/MM+RLRXBwaRC3pRmqrrqQ7leXIVVUV1FZVSae3fUYH/P3Iqlal7Jgw4UX5KN3GYKC++iT7nPfXFrMn02k63nqPjl+gjl+R1MmLRPuqL5NhcxWxS0izLs7YXz4+97P4eI20aFTXj69JYU+gCrpdXkq3Sg+hh3SnooxulZVS7bLFlO41ttk43nugfJRuE/qx86chy23lq1LrqO5Mm/SkOnKuHXXp6Pm7dOLCPfoit5mNzH59WkLuSPn43M+s9grY/5aWvYqZpFcxV08s9PXaD1dT85ZNlOU9hqwa1d/ko3SbyHj7a7qle29tz2mipkvk8kmG2tnI2KtZzWWKWl1E7PI6QD4+98vwUQUXvO1LFzIsGFk3u1tbQ6fYJWO2ehylaVRuv94PT3L+Xrc0697Ofc3UfBkje1j8krGg9grNWFtCYXHOYPn43M+q9QrK5yOzmjGybiaNbOsWsrGRmbXef5eP0m3kkd3dgZE9Mj6y/MN8ZIdIn+DgH/LvGRiZ8jAyMcLIBA4jEyOMTOAwMjHCyAQOIxMjjEzgMDIxwsgEDiMTI4xM4DAyMcLIBA4jEyOMTOAwMjHCyAQOIxMjjEzgMDIxwsgEDiMTI4xM4DAyMcLIBA4jEyOMTOAwMjHCyAQOIxMjjEzgMDIxwsgEDiMTI4xM4DAyMeo1I8ONdJQnjUy+kY4VN9LptfGR3b+RTqIHb6SToVZNyZ3gQ+dNqRhZN2uvqaamTzdShteYe2Zf9RvyUbqNfpntVd3SvTe2ORqp8RJRg4snGOq4JVxO1SV6L+UAhSc4p8jH534WrddQi2bc5YYViXSnopxu85t3unhioY7aKivoZkkx1SyMIbP3mAazVvuqfJRuo1+zf0DIMlth0s5aqmm+LT2ZXD3JnueOtdyVbvq6ObuRwuJtl6clO4bKx+d+1tGj+1nUqq0Hde/Sme1bpdtR81e09poq9EDSK31ZCZ3csI7y/SZSho/XYsNwD3zCC9EL+iRHeFRKIX1ub6T6s23S0PjlESLpLI613KOsklaat7GCwhKyt0Z+cKSffHqewT+hxKoZV1nEhtaQnEDnUndRq9kk3VUYdcTP4+yu7VS3dBEVTn6HMjTee50+Pq/IR+h2761w/jgsPvuL9z8qpjXpRymrtEW6Wy6///tzHTsDR8VF+tTWKA/MXhke7/T4J/BIMn18BrFXtC0ZmnGtOeM1lPeWlvjtu1FH/Dzsvmr+6tVo0ahWscvE38pH5zGRS6w/0yfYl+iTc+qnrdhPUWuKKWr18910dgb/XlVI+kRHS1iifcu0JPsg+bh6B4OhT980jWaIRauamOnj7WdF9+s4j3HjzRM8/7lkD5qakP2niKQcn/Bkh1944nMeOwM2sIkR8bYh/LJaPiIAAAAAAAAAAAAAAAAAAAAAAAAAAAAAAACAZ0OfPv8D+ROmoqrXlVsAAAAASUVORK5CYII=;" parent="1" vertex="1">
          <mxGeometry x="333" y="540" width="68.67" height="50" as="geometry" />
        </mxCell>
        <mxCell id="6GxZAxuU6wFZJalrGuod-42" value="" style="shape=image;verticalLabelPosition=bottom;labelBackgroundColor=default;verticalAlign=top;aspect=fixed;imageAspect=0;image=data:image/png,iVBORw0KGgoAAAANSUhEUgAAANkAAACeCAYAAAC/46+iAAAAAXNSR0IArs4c6QAAAARnQU1BAACxjwv8YQUAAAAJcEhZcwAAFxEAABcRAcom8z8AAAsoSURBVHhe7d15UJT3HcdxY9vYduK0To902rSdJm3N9B/7T+0Ya7U2dTwWdlk0JqIBlkMWpEFjHS9YvOXUSNTEqjGaaLxwF3YXcNldUA4FuUFAvABP8IwaD9Bvf7+HB0vMqjxGdvnp5zXzHl30r1/2wz5skmf7AAAAAAAAAAAAAAAAAAAAAAAAAAAAAAAAAECvkVQw/QeG9KARsabgd2LTg/3Q1zOk6TTzjbqB8nEBKGMwBY80mILMMSbdtWXZeopzhlOcA92PncdCawgtsAQfjk0LNiwz6wfIRwfweGxcow1pgedW588lY9Vmym3YS/uPZqMHstWbaPOhJIqzRxB7Vdv0oTP8JfkIAR6Of0eONgYeXFMwn/KO26mupY7qW4/QEfSN+LlUn62kneXraUlmGC1MD9GxI3yh4yQBHiImXee3yDz1jrV2B3siNdDhczVUc64aPSQ+tLJTh2hdwSKav8c/N86o6y8fJYBrMWmBS1bsm0nFzQeo9nytyycW+nr8m9GusvU0L3XyFYNR90v5KAFcizH5J6UUzKLyUyUYWTc7euEY7anYRHNTp9xetCfg1/JRArgWbQxIXJU/S7oEwsi6Fx9ZasUnNHf35FsYGTwWRqY8jAwUwciUh5GBIhiZ8jAyUAQjUx5GBopgZMrDyEARjEx5GBkogpEpDyMDRTAy5WFkoAhGpjyMDBTByJSHkYEiGJnyMDJQBCNTHkYGimBkysPIQBGMTHkYGSiCkSkPIwNFMDLlYWSgCEamPIwMFMHIlIeRgSIYmfIwMlCE30inY2S4kU536xgZv5HOZNxIBx4v2hi4fGXef6ikuQgj62YNF47S7vIN/G5V1xanT/2VfJQArs1PCwhebNW37603SnfJdfWkQv+vrqWeKs+U04YDy2jenneLlttCfyQfJYBr/OacMcbA6nWFC6ioKZ/qW+ulW3UjV9VLr/amqs9ouS2CFqQHRxERbtMNj2dIC5kUa9Ld+LgwlrLqUqmosYAONR1AD8Q/K2B7+VpKyo0ig0lnXWqL+Il8hACPZ0gLmhRjCipdaA69m7xvOq3Mm0Er9qPO+HnE2SNpoSXkHDur9Ya00N/IRwfQfUuyg16O2eM/Jdqomx9r1BliPFhselD0pJhRplGBg0/P3em/yNXfcWfSeaQFTo/eEzBMPi6AZ8Jq1iXW69IjAHiq+CvGdRaxtrPwBgPAU/Qd1mYWHxjvCusfLAB4St5gfcXqHBnvc9b3WADwFGxldR0Y70vWcBYAfEv8ZzF+efjgyHj8EpJfSgLAE/ouq+vPYg/G3wgZygKAJ/SoV7HOtrEA4Anwy8BPWK6G1bVrLPwLYYAnMITF39zoOij+DuM91s0uX+PxN0bwsxmAQvwt+s4R1bAC5a/xkU1mbWS1sfif32CNYAFAN/2TdYfVxJrJ+h2LW8Lio/o+i78pwv/eDla7/OsPWQDwGH1ZC1h8UK/wL3SRyOIje1l61OFF1r9Y/JJxEP8CADwa/684BnT89htcjaxTPxZ/hQOAb+FRIwOApwAjA+hhGBlAD8PIAHoYRgbQwzAygB6GkQH0MIwMoIdhZAA9DCMD6GEYGUAPw8gAehhGBtDDElh8ZD+XHgHAU7ecxUeGD9qDXm00K59VzqoSLH7THD6yui5fe9Y7yNrF4v8nOAgiiMWfqCdZrv6h9uaKWfwbRGWXrz3r8fuYXGXhluQC8Wfxkf1ZegS9Hb93Cb+JK0YmkM6RDZYeQW+3m8UvkzEygXSO7K/SI+jtMDIBYWRiwcgEhJGJBSMTEEYmFoxMQBiZWDAyAWFkYsHIBISRiQUjExBGJhaMTEAYmVgwMgFhZGLByASEkYkFIxMQRiYWjExAGJlYMDIBYWRiwcgEhJGJBSMTEEYmFoxMQBiZWDAyAWFkYsHIBISRiQUjExBGJhaMTEAYmVgwMgFhZGLByASEkYkFIxMQRiYWjExAGJlYMDIBYWRiwcgEpGXxkf1RegS93VbWlx2/BZeM3t79LWqVr8VrzByr91iD2cMtGjI4ddLAP9DqEcPWufpzd8bPg53LLLPP2NFOw/Be9dFAUxOcI/Txjhlh8dkGTzZMG3X4L6MCbocuz1rg6s/d1dQE+5yweJtv+IfOl+Qj6h3MWu83Ld4qZ6av+mbBlLepyH8SHUT34+eR5zeRsnzVVzLUqlSzWu3xT5qJjLe+NjXRsTkiObdl5toimr2hgmavf76bw85g1rpSmpacczMs0e7Ux9velI/Ls6wazfAMjaqpRB9CJ//7EV3OzqKruU66muNAnbHzuJiVQcdSVlKRzp8yNarSTK32dfkI3S483vkL9upln72+jDbZTlJ+7VUqPXGDSo8/5534iooartPuvDO0YEs1hSU4miKTHMPlY/MM+RLRXBwaRC3pRmqrrqQ7leXIVVUV1FZVSae3fUYH/P3Iqlal7Jgw4UX5KN3GYKC++iT7nPfXFrMn02k63nqPjl+gjl+R1MmLRPuqL5NhcxWxS0izLs7YXz4+97P4eI20aFTXj69JYU+gCrpdXkq3Sg+hh3SnooxulZVS7bLFlO41ttk43nugfJRuE/qx86chy23lq1LrqO5Mm/SkOnKuHXXp6Pm7dOLCPfoit5mNzH59WkLuSPn43M+s9grY/5aWvYqZpFcxV08s9PXaD1dT85ZNlOU9hqwa1d/ko3SbyHj7a7qle29tz2mipkvk8kmG2tnI2KtZzWWKWl1E7PI6QD4+98vwUQUXvO1LFzIsGFk3u1tbQ6fYJWO2ehylaVRuv94PT3L+Xrc0697Ofc3UfBkje1j8krGg9grNWFtCYXHOYPn43M+q9QrK5yOzmjGybiaNbOsWsrGRmbXef5eP0m3kkd3dgZE9Mj6y/MN8ZIdIn+DgH/LvGRiZ8jAyMcLIBA4jEyOMTOAwMjHCyAQOIxMjjEzgMDIxwsgEDiMTI4xM4DAyMcLIBA4jEyOMTOAwMjHCyAQOIxMjjEzgMDIxwsgEDiMTI4xM4DAyMcLIBA4jEyOMTOAwMjHCyAQOIxMjjEzgMDIxwsgEDiMTI4xM4DAyMeo1I8ONdJQnjUy+kY4VN9LptfGR3b+RTqIHb6SToVZNyZ3gQ+dNqRhZN2uvqaamTzdShteYe2Zf9RvyUbqNfpntVd3SvTe2ORqp8RJRg4snGOq4JVxO1SV6L+UAhSc4p8jH534WrddQi2bc5YYViXSnopxu85t3unhioY7aKivoZkkx1SyMIbP3mAazVvuqfJRuo1+zf0DIMlth0s5aqmm+LT2ZXD3JnueOtdyVbvq6ObuRwuJtl6clO4bKx+d+1tGj+1nUqq0Hde/Sme1bpdtR81e09poq9EDSK31ZCZ3csI7y/SZSho/XYsNwD3zCC9EL+iRHeFRKIX1ub6T6s23S0PjlESLpLI613KOsklaat7GCwhKyt0Z+cKSffHqewT+hxKoZV1nEhtaQnEDnUndRq9kk3VUYdcTP4+yu7VS3dBEVTn6HMjTee50+Pq/IR+h2761w/jgsPvuL9z8qpjXpRymrtEW6Wy6///tzHTsDR8VF+tTWKA/MXhke7/T4J/BIMn18BrFXtC0ZmnGtOeM1lPeWlvjtu1FH/Dzsvmr+6tVo0ahWscvE38pH5zGRS6w/0yfYl+iTc+qnrdhPUWuKKWr18910dgb/XlVI+kRHS1iifcu0JPsg+bh6B4OhT980jWaIRauamOnj7WdF9+s4j3HjzRM8/7lkD5qakP2niKQcn/Bkh1944nMeOwM2sIkR8bYh/LJaPiIAAAAAAAAAAAAAAAAAAAAAAAAAAAAAAACAZ0OfPv8D+ROmoqrXlVsAAAAASUVORK5CYII=;" parent="1" vertex="1">
          <mxGeometry x="404.33000000000004" y="540" width="68.67" height="50" as="geometry" />
        </mxCell>
        <mxCell id="6GxZAxuU6wFZJalrGuod-43" value="" style="sketch=0;aspect=fixed;pointerEvents=1;shadow=0;dashed=0;html=1;strokeColor=none;labelPosition=center;verticalLabelPosition=bottom;verticalAlign=top;align=center;fillColor=#00188D;shape=mxgraph.azure.script_file" parent="1" vertex="1">
          <mxGeometry x="278" y="540" width="37.6" height="40" as="geometry" />
        </mxCell>
        <mxCell id="6GxZAxuU6wFZJalrGuod-58" value="&lt;b&gt;S/4 HANA&lt;/b&gt;" style="text;html=1;align=center;verticalAlign=middle;resizable=0;points=[];autosize=1;strokeColor=none;fillColor=none;" parent="1" vertex="1">
          <mxGeometry x="318" y="500" width="80" height="30" as="geometry" />
        </mxCell>
        <mxCell id="6GxZAxuU6wFZJalrGuod-59" value="" style="sketch=0;pointerEvents=1;shadow=0;dashed=0;html=1;strokeColor=none;labelPosition=center;verticalLabelPosition=bottom;verticalAlign=top;outlineConnect=0;align=center;shape=mxgraph.office.users.users;fillColor=#7FBA42;" parent="1" vertex="1">
          <mxGeometry x="252.00000000000003" y="380" width="46" height="50" as="geometry" />
        </mxCell>
        <mxCell id="6GxZAxuU6wFZJalrGuod-66" value="" style="sketch=0;pointerEvents=1;shadow=0;dashed=0;html=1;strokeColor=none;labelPosition=center;verticalLabelPosition=bottom;verticalAlign=top;outlineConnect=0;align=center;shape=mxgraph.office.users.users;fillColor=#2072B8;" parent="1" vertex="1">
          <mxGeometry x="273" y="50" width="46" height="50" as="geometry" />
        </mxCell>
        <mxCell id="Pre2tEXC9XT2MhAQ1GmP-3" value="SAP BOBJ and SAC&amp;nbsp;" style="swimlane;horizontal=0;whiteSpace=wrap;html=1;fillColor=#f8cecc;strokeColor=#b85450;" parent="1" vertex="1">
          <mxGeometry x="222.82999999999998" y="110" width="317" height="170.5" as="geometry" />
        </mxCell>
        <mxCell id="TRB6SSyYgOOl4RTs66kK-4" value="" style="rounded=0;whiteSpace=wrap;html=1;" parent="Pre2tEXC9XT2MhAQ1GmP-3" vertex="1">
          <mxGeometry x="44.76" y="90" width="230" height="60" as="geometry" />
        </mxCell>
        <mxCell id="TRB6SSyYgOOl4RTs66kK-5" value="&lt;b&gt;WebI (Web Intelligence)&lt;/b&gt;" style="text;html=1;align=center;verticalAlign=middle;resizable=0;points=[];autosize=1;strokeColor=none;fillColor=none;" parent="Pre2tEXC9XT2MhAQ1GmP-3" vertex="1">
          <mxGeometry x="84.00999999999995" y="105" width="160" height="30" as="geometry" />
        </mxCell>
        <mxCell id="TRB6SSyYgOOl4RTs66kK-7" value="" style="sketch=0;outlineConnect=0;fontColor=#232F3E;gradientColor=none;fillColor=#8C4FFF;strokeColor=none;dashed=0;verticalLabelPosition=bottom;verticalAlign=top;align=center;html=1;fontSize=12;fontStyle=0;aspect=fixed;pointerEvents=1;shape=mxgraph.aws4.quicksight_paginated_reports;" parent="Pre2tEXC9XT2MhAQ1GmP-3" vertex="1">
          <mxGeometry x="241.06999999999994" y="101.75" width="23.85" height="30" as="geometry" />
        </mxCell>
        <mxCell id="TRB6SSyYgOOl4RTs66kK-12" value="" style="shape=image;verticalLabelPosition=bottom;labelBackgroundColor=default;verticalAlign=top;aspect=fixed;imageAspect=0;image=data:image/png,iVBORw0KGgoAAAANSUhEUgAAADcAAAAsCAYAAADByiAeAAAKOElEQVRoBe2YeXBV1R3H/VtAQUqlVKWjlE2LseNWFBh2ARvAggqVQQoYl1BA9mAijUAAGQViogRkkVCEQBRDIAQIkH0jycvysvCyb2/f9+3TOTfGsTYEMCRjHc7MnXvnvvvuOZ/z/f2+53fPPfyK2z2/Yjbuwv2/qntXuW5RzufDq9fjLCrCfjoBS9TnWELDMK1eg/6DUPSfRWFKuYLTZMbn8+P33/4oel45vx+f1YqrTI7z4iWc8fE4jv4b2969WHd8jGVDCKagtzHOmYNu6kuo3g1G981pHAYjPq/3tgh7Fs7rxavR4pIV487Kxp2djSstDdf58zjj4rDHxGCN2IZ51WqMCxeinzED3fPPo3pxDK2bt2KUl+N2um5ZxR6F86o1uEtK8JSU4K2qwnNdgaesDHdODq7kZBzHjmGLjGwLz6AgDLNfQTdmLNrHn0D5ZACN60LQyitwuT3cSpT2GJzPbMZdUICnuBhfXT0+tRqfRoOvqQmvXI47PR3nt99i3xeDdfMWzMuWYXztdfTjJ6AdFYDmkcE0Dx9JXcQO9E3NeG8hRHsGzuvFVVKMOyMDb0UFPqUKv82G3+HAp9XiVVTjzsnFmZiI/cBBrBERmFeswDhvPvpJk9AGPIVm8B9QP9Cf2hfGUnsmCavFiv8mLtMjcF6VCmdSEq70dLzl5fhalfgtFglQqOe9rpBC03lGwB1og1u+ApOAmzgJXUBAG1y/B2jpP4CKNSG0Vtfh8XRuMB3COV1ucsq0HLvUxMFzjVzI16BotuJwdf6yG1mZs6AAR9xJXCkpeIqK8NbU4GttxadU4quvx1NSijs1DWf8N9j2xmD96CNMwcEY577aFpZ/GoXm4UdQ9+2H6t5eVE6eRlVqFlab40ZdSvc7hLNYLLS0qqipa0JW3six5BqWR5Yyf3MR62PKiU1uRF5nwneTsGjv2ZFwBsehwzgTEiR39BQV4pHLJRU9MhnuzEyc587hOHoU267dWDZ+gGnpWxhnz0b34hi0Ix9HPeghVPf3leBqho1EFn8GncHUqXN2COdyubDZbBgMBlpaWlAoFJSUlpF4pZQNX8iYti6PcStzmB2aS/ghOUnZrRgsLjxef4fAtv37se2JxBEbi/O7BFwXL+FOS5MO1+UUKdckp4z+vM1MRL69sQD9S9PQPfMsmj8ORf3gQFR97pPgmvoPIO/QMVrV2k7zrkO49hn3+Xw4nU6MRiPNzc1UVVVRWFjIucvX2BlbyLzwfKauyWHc8kymrM4gbH8p57JbqVfasNg9UmUh3mXdth1b+EfYdu/BcfAAjq+P4Tx1CsepeBzHj2M/fBh7VBTWrRFY1qzFtHiJpJp+3Di0o55E/b2ZqHr1luCUvfuQufcgTc2qnw/XDilcyePxYLVaUalUEmR+fj5nL2axMzafpdvzmbEhj/ErMnkhOJW5YdnsOlFFWrGGZo0dw5YIzO+/jyUsDOuO7Vh378YWFYU9Ohr7nkisH+/EuulfmFevxrR0aVuuTZqM7uln0Awdhnrg71Ddd78EJnKuYeAg0vYdoaFJ2XW4H0OK9cVut6NWqyXIrOxs4s9lseOrQt7+pJjA0CLGv5/LmGUZTF6VwfovSsheuw3Dwjcxv/MullWrsISEYA0Nwxr2oZRf5jVrMQcvw7hoEYY5c9BPmYLuuefRjBiJ+qGHUffrT7tqAq7qiQDSj56iuVV95+DaIcVZQIq8VCqVlJaVcTk1i6Pf5bP1iJy3dlUyfWMxY1fmM+afWYQv2IX65ZkY58zF9MYCTIsXY34rCHNQEKYlS6RSy/jaaxj+Goh+wgS0zz7XZiKDB6P6zQBUvfv8oJqAk70USHbiRdRaQ/fACcD2cDWZTNTW1pKTe42ECzns+66SjYcamL/tOhPXlzD37USyJ85BN36CZBICwjBzFsZZszAEBmKYNh39xInoRr+A9qk/oxk2HLWwfgmszUQElBSSgx4iY20ohblFmMzWH8/3/1x3aij/8/QNbgjjcTgckopFRTKSUrI5dqGaT+JVvBPVwNQQOdtnhaMZ9STap5+RimEBIh1/GS05ojYgAO2IkWgefQz1oN9L1chPFVPe24vSsRNIPXKC6tpGxHrcWbsjcKIDoaLb7ZZyUSYrJvlyFievNBB1Vsfyfa3MWFPIidHz0Dz2GJqhQyV1tMOGS4ahGTKkzREF1IABbevZ987Yrpg4K4Y/zpXNO8nLK0anNyImtbN2x+DaOxGAGo2GoqIizqdkczJVReRZI+/FqHg96DynR01H/dsH0Tw4UFq7xLUIP3W/B9rWsQ6gBFjNo0NIXbmetAtpkku6bqKaGM8dhxMvFYCtra3k5uaSeLWC2KsmtsabWLRbyd+XJhIb8Dfq+w6gpY+w97a168cK/XDdqzet9/dFMeIJrq7/kKvJqVTXNmGzOzo1kvaJ7hY4EaJiuaiuriblaibH0/TsOWtj1VdmXtmh5OWVeYRNDiVhyFjK+j9MTTtor94oe99HS7/+NA4cRM2wEeTPX8jl6ANk5MiorW/BYrP/UBy0Q9zo3C1wojOxVGi1WvLy8oi73EB0soONx+0sjLIwbauWSSEKZi49R/D0LXw8ejHpU+dSNXU68hkzKVqwiJx1YaTFHCE9NZeyimqUah0Op+uWwcQYug1OvFxUNHK5nPiUSj5LdhJ20sWSfQ5mf2JleoSByZuaGLe2jNHLMok9W0Zx2XUKiisoKq1EXllDTV0zKrUOq80ufd6IiLid1q1woi4VRfepS1V8muQm9KSXoANuXt3jIHCnjRnbDEwNb2HiRgUpRXrsdqeUTyKnhEpiO8Hr9d1SfnUE3e1wNTU1nLhYxfYzXkLi/AQd8jIv2sPsXU4Cd1qYHqFhyqZG0uW2jsbXpXvdDieU+zKphfDTftaegKBDft74wsfcSA+vfGoncIeOaZtbyCi3dwmkoz93G5zID5FzBSWVfJzoYNNpWBcH78XCm/th/uc+KTxn7TQStFdDaYOzo/F16V63wYnqQbjlN+kNbEv0sCURwhNgbRy8GwuLvvQyP9rJnE/N7DxtQKnvvJT6OZTdAidUs9nsFFY0E3PZSeQliEqBXRdg8xlYd9JPcKyXf+xzEnzQTEa57aal1C8CTgpHm4OyWj1xOXaOZPk5kQ8n8uBwJnyWAlsS/Ww46WbD1zbis0zSFsXPGfzN/nPHlBNQYuHWmx3IaswkFjo5I/OTUg5Xq5DOCTI4kgXRlzzsvWjiUqEOjd7aLaoJ8C7DCSiX20uTzk1Zo5P0CifnSzxcqYRrdVDSBGXNUFDr4WqphaRrelIKVchr1IhdNjEh3dW6DCcGZ7ZYqahVkylrJCWvltR8BVmFCvKKFRSUKpCV11JcUU9pZT2KumbJaMQCf7NPlq5C3xE4USTrdDpph6y+vp66urr/OhobG6WNJfHF3hNQ7ZPSZTjxIhGaQgWhotgl++kh7ovfxXM92e4IXE8O+Hb6ugt3O7P1S3r2rnK/JDVuZyz/AT9q9Wk8C2IeAAAAAElFTkSuQmCC;" parent="Pre2tEXC9XT2MhAQ1GmP-3" vertex="1">
          <mxGeometry x="53.98" y="105" width="37.5" height="30" as="geometry" />
        </mxCell>
        <mxCell id="6GxZAxuU6wFZJalrGuod-61" value="" style="rounded=0;whiteSpace=wrap;html=1;" parent="Pre2tEXC9XT2MhAQ1GmP-3" vertex="1">
          <mxGeometry x="39.25" y="20" width="260.75" height="51.75" as="geometry" />
        </mxCell>
        <mxCell id="6GxZAxuU6wFZJalrGuod-63" value="&lt;b&gt;SAP Analytics Cloud (SAC)&lt;/b&gt;" style="text;html=1;align=center;verticalAlign=middle;resizable=0;points=[];autosize=1;strokeColor=none;fillColor=none;" parent="Pre2tEXC9XT2MhAQ1GmP-3" vertex="1">
          <mxGeometry x="77.69000000000005" y="31.5" width="180" height="30" as="geometry" />
        </mxCell>
        <mxCell id="TRB6SSyYgOOl4RTs66kK-20" value="" style="image;aspect=fixed;perimeter=ellipsePerimeter;html=1;align=center;shadow=0;dashed=0;spacingTop=3;image=img/lib/active_directory/internet_cloud.svg;" parent="Pre2tEXC9XT2MhAQ1GmP-3" vertex="1">
          <mxGeometry x="245.57999999999993" y="35" width="50" height="31.5" as="geometry" />
        </mxCell>
        <mxCell id="NSPP4m-daajQS5hrmIqt-1" value="" style="sketch=0;outlineConnect=0;fontColor=#232F3E;gradientColor=none;fillColor=#8C4FFF;strokeColor=none;dashed=0;verticalLabelPosition=bottom;verticalAlign=top;align=center;html=1;fontSize=12;fontStyle=0;aspect=fixed;pointerEvents=1;shape=mxgraph.aws4.athena_data_source_connectors;" parent="Pre2tEXC9XT2MhAQ1GmP-3" vertex="1">
          <mxGeometry x="44.75999999999999" y="25" width="39.49" height="40" as="geometry" />
        </mxCell>
        <mxCell id="MblCfYxSOG9bJkDrFGRq-3" value="" style="sketch=0;pointerEvents=1;shadow=0;dashed=0;html=1;strokeColor=none;labelPosition=center;verticalLabelPosition=bottom;verticalAlign=top;outlineConnect=0;align=center;shape=mxgraph.office.users.users;fillColor=#7FBA42;" vertex="1" parent="1">
          <mxGeometry x="295" y="380" width="46" height="50" as="geometry" />
        </mxCell>
        <mxCell id="MblCfYxSOG9bJkDrFGRq-4" value="" style="endArrow=classic;html=1;rounded=0;flowAnimation=1;" edge="1" parent="1">
          <mxGeometry width="50" height="50" relative="1" as="geometry">
            <mxPoint x="278" y="440" as="sourcePoint" />
            <mxPoint x="278" y="500" as="targetPoint" />
          </mxGeometry>
        </mxCell>
        <mxCell id="MblCfYxSOG9bJkDrFGRq-7" value="" style="endArrow=classic;html=1;rounded=0;flowAnimation=1;" edge="1" parent="1">
          <mxGeometry width="50" height="50" relative="1" as="geometry">
            <mxPoint x="295" y="440" as="sourcePoint" />
            <mxPoint x="295" y="500" as="targetPoint" />
          </mxGeometry>
        </mxCell>
        <mxCell id="MblCfYxSOG9bJkDrFGRq-8" value="" style="endArrow=classic;html=1;rounded=0;flowAnimation=1;" edge="1" parent="1">
          <mxGeometry width="50" height="50" relative="1" as="geometry">
            <mxPoint x="315.6" y="440" as="sourcePoint" />
            <mxPoint x="315.6" y="500" as="targetPoint" />
          </mxGeometry>
        </mxCell>
        <mxCell id="MblCfYxSOG9bJkDrFGRq-9" value="&lt;b&gt;&lt;font style=&quot;font-size: 15px;&quot;&gt;SAP Users &lt;br&gt;(Daily transactions)&lt;/font&gt;&lt;/b&gt;" style="text;html=1;align=center;verticalAlign=middle;resizable=0;points=[];autosize=1;strokeColor=none;fillColor=none;" vertex="1" parent="1">
          <mxGeometry x="229.6" y="330" width="160" height="50" as="geometry" />
        </mxCell>
        <mxCell id="MblCfYxSOG9bJkDrFGRq-10" value="" style="endArrow=classic;html=1;rounded=0;exitX=0.63;exitY=0;exitDx=0;exitDy=0;exitPerimeter=0;flowAnimation=1;" edge="1" parent="1">
          <mxGeometry width="50" height="50" relative="1" as="geometry">
            <mxPoint x="388" y="500" as="sourcePoint" />
            <mxPoint x="389" y="280" as="targetPoint" />
          </mxGeometry>
        </mxCell>
        <mxCell id="MblCfYxSOG9bJkDrFGRq-11" value="" style="sketch=0;pointerEvents=1;shadow=0;dashed=0;html=1;strokeColor=none;labelPosition=center;verticalLabelPosition=bottom;verticalAlign=top;outlineConnect=0;align=center;shape=mxgraph.office.users.users;fillColor=#2072B8;" vertex="1" parent="1">
          <mxGeometry x="325.79" y="50" width="46" height="50" as="geometry" />
        </mxCell>
        <mxCell id="MblCfYxSOG9bJkDrFGRq-12" value="" style="sketch=0;pointerEvents=1;shadow=0;dashed=0;html=1;strokeColor=none;labelPosition=center;verticalLabelPosition=bottom;verticalAlign=top;outlineConnect=0;align=center;shape=mxgraph.office.users.users;fillColor=#2072B8;" vertex="1" parent="1">
          <mxGeometry x="387.46" y="50" width="46" height="50" as="geometry" />
        </mxCell>
        <mxCell id="MblCfYxSOG9bJkDrFGRq-13" value="&lt;b&gt;&lt;font style=&quot;font-size: 15px;&quot;&gt;BI Report Users&lt;/font&gt;&lt;/b&gt;" style="text;html=1;align=center;verticalAlign=middle;resizable=0;points=[];autosize=1;strokeColor=none;fillColor=none;" vertex="1" parent="1">
          <mxGeometry x="440" y="70" width="140" height="30" as="geometry" />
        </mxCell>
        <mxCell id="MblCfYxSOG9bJkDrFGRq-14" value="Realtime" style="text;html=1;align=center;verticalAlign=middle;resizable=0;points=[];autosize=1;strokeColor=none;fillColor=none;" vertex="1" parent="1">
          <mxGeometry x="389.6" y="300" width="70" height="30" as="geometry" />
        </mxCell>
        <mxCell id="MblCfYxSOG9bJkDrFGRq-15" value="&lt;b&gt;ABAP CDS Views&lt;/b&gt;" style="text;html=1;align=center;verticalAlign=middle;resizable=0;points=[];autosize=1;strokeColor=none;fillColor=none;" vertex="1" parent="1">
          <mxGeometry x="158" y="605" width="120" height="30" as="geometry" />
        </mxCell>
      </root>
    </mxGraphModel>
  </diagram>
</mxfile>
